<svg width="371" height="241" viewBox="0 0 371 241" fill="none" xmlns="http://www.w3.org/2000/svg">
<g id="dropshop-img--1">
<g id="Group 42">
<path id="Rectangle 338" d="M370.837 0.194336H28.6632V220.101H370.837V0.194336Z" fill="#E6E6E6"/>
<path id="Rectangle 339" d="M361.052 27.7761H38.4477V207.092H361.052V27.7761Z" fill="white"/>
<path id="Rectangle 340" d="M370.691 0H28.5173V14.5873H370.691V0Z" fill="#78509C"/>
<path id="Ellipse 513" d="M39.3202 10.1622C40.8084 10.1622 42.0147 8.95162 42.0147 7.4583C42.0147 5.96497 40.8084 4.75439 39.3202 4.75439C37.8321 4.75439 36.6257 5.96497 36.6257 7.4583C36.6257 8.95162 37.8321 10.1622 39.3202 10.1622Z" fill="white"/>
<path id="Ellipse 514" d="M49.5468 10.1622C51.035 10.1622 52.2413 8.95162 52.2413 7.4583C52.2413 5.96497 51.035 4.75439 49.5468 4.75439C48.0587 4.75439 46.8523 5.96497 46.8523 7.4583C46.8523 8.95162 48.0587 10.1622 49.5468 10.1622Z" fill="white"/>
<path id="Ellipse 515" d="M59.7734 10.1622C61.2616 10.1622 62.4679 8.95162 62.4679 7.4583C62.4679 5.96497 61.2616 4.75439 59.7734 4.75439C58.2853 4.75439 57.0789 5.96497 57.0789 7.4583C57.0789 8.95162 58.2853 10.1622 59.7734 10.1622Z" fill="white"/>
</g>
<g id="item-5">
<path id="Rectangle 345" d="M231.298 123.652H168.201V192.345H231.298V123.652Z" fill="#E6E6E6"/>
<path id="Path 2643" d="M183.452 141.306L194.98 136.733L196.321 159.601C196.321 159.601 198.733 166.596 197.929 169.287C197.929 169.287 198.465 173.86 197.125 174.129C195.784 174.398 192.03 174.937 191.764 174.667C191.499 174.398 191.496 173.591 191.496 173.591C191.496 173.591 188.815 175.474 188.547 177.626C188.547 177.626 177.287 181.124 177.019 177.895C176.751 174.667 182.649 171.976 182.649 171.976L187.207 164.981L183.452 141.306Z" fill="#78509C" fill-opacity="0.54"/>
<path id="Path 2644" d="M207.85 141.306L219.377 136.733L220.718 159.601C220.718 159.601 223.13 166.596 222.326 169.287C222.326 169.287 222.862 173.86 221.522 174.129C220.181 174.398 216.427 174.937 216.162 174.667C215.896 174.398 215.893 173.591 215.893 173.591C215.893 173.591 213.212 175.474 212.944 177.626C212.944 177.626 201.684 181.124 201.416 177.895C201.148 174.667 207.046 171.976 207.046 171.976L211.604 164.981L207.85 141.306Z" fill="#78509C" fill-opacity="0.54"/>
</g>
<g id="item-6">
<path id="Rectangle 342" d="M231.298 42.5254H168.201V111.218H231.298V42.5254Z" fill="#E6E6E6"/>
<path id="Path 2645" d="M208.977 52.9969C208.977 52.9969 206.522 59.8799 209.366 62.9838L206.995 71.1605C206.995 71.1605 215.42 96.5229 213.013 100.066C213.013 100.066 204.026 104.574 186.052 98.4551L193.353 70.033L192.31 58.0362L193.754 52.3999L196.963 52.0803C196.963 52.0803 195.038 59.3266 198.568 60.4541C202.099 61.5815 205.543 52.2614 205.543 52.2614L208.977 52.9969Z" fill="#78509C"/>
</g>
<g id="item-4">
<path id="Rectangle 341" d="M141.237 42.5254H78.1404V111.218H141.237V42.5254Z" fill="#E6E6E6"/>
<path id="Path 2646" d="M95.6124 97.4285L98.7103 98.7002L113.495 79.2009L118.142 102.091L121.24 101.526C123.227 81.7914 124.849 61.6626 122.859 52.1422L111.383 51.6475L106.173 68.323L103.639 79.627L95.6124 97.4285Z" fill="#03A7D3" fill-opacity="0.54"/>
</g>
<g id="item-3">
<path id="Rectangle 343" d="M321.358 42.5254H258.262V111.218H321.358V42.5254Z" fill="#E6E6E6"/>
<path id="Path 2647" d="M283.627 51.9861C283.627 51.9861 279.399 57.8839 279.605 60.264C279.812 62.644 282.492 101.447 282.492 101.447L288.783 101.757L286.925 73.8191L288.472 66.2656L292.287 101.447L300.021 101.654L293.112 56.022L291.772 51.9866L283.627 51.9861Z" fill="#03A7D3"/>
</g>
<g id="item-2">
<path id="Rectangle 346" d="M321.358 123.652H258.262V192.345H321.358V123.652Z" fill="#E6E6E6"/>
<path id="Path 2648" d="M307.521 147.001C306.399 145.649 304.469 144.919 302.616 144.524C302.669 144.355 296.981 143.175 296.884 143.418L294.74 141.704L288.149 145.137L284.447 142.607L282.726 143.22C282.797 142.915 277.387 143.856 277.387 143.856C276.354 143.893 275.034 143.958 273.556 144.072C268.382 144.471 267.983 157.919 267.983 157.919C270.364 156.942 272.902 156.408 275.474 156.345L276.872 172.429C284.065 171.81 291.609 172.53 299.428 174.293L303.095 161.65L311.634 158.317C311.634 158.317 310.175 150.196 307.521 147.001Z" fill="#03A7D3"/>
</g>
<g id="item-1">
<path id="Rectangle 344" d="M141.237 123.652H78.1404V192.345H141.237V123.652Z" fill="#E6E6E6"/>
<path id="Path 2649" d="M124.282 139.342C123.357 138.229 121.768 137.626 120.241 137.301C120.287 137.161 115.598 136.19 115.517 136.39L113.75 134.978L108.321 137.807L105.27 135.723L103.853 136.228C103.911 135.977 99.4533 136.751 99.4533 136.751C98.6042 136.782 97.5141 136.835 96.2971 136.93C92.0338 137.259 91.7058 148.338 91.7058 148.338C93.6673 147.533 95.7589 147.093 97.8776 147.041L99.0298 179.483C104.956 178.972 111.172 179.566 117.613 181.019L120.634 151.413L127.67 148.667C127.67 148.667 126.468 141.976 124.282 139.342Z" fill="#78509C"/>
</g>
<g id="ok-circle" clip-path="url(#clip0_28_20)">
<path id="Ellipse 44" d="M53.92 240.87C72.077 240.87 86.7961 225.531 86.7961 206.609C86.7961 187.687 72.077 172.348 53.92 172.348C35.763 172.348 21.0439 187.687 21.0439 206.609C21.0439 225.531 35.763 240.87 53.92 240.87Z" fill="#78509C"/>
<path id="Path 395" d="M50.6622 219.678C49.9226 219.68 49.2026 219.43 48.6109 218.968L48.5742 218.939L40.8479 212.78C40.49 212.494 40.1897 212.137 39.9641 211.731C39.7385 211.324 39.592 210.875 39.5329 210.409C39.4739 209.943 39.5035 209.469 39.62 209.016C39.7365 208.562 39.9377 208.136 40.212 207.763C40.4863 207.39 40.8285 207.077 41.2189 206.842C41.6092 206.607 42.0402 206.454 42.4873 206.393C42.9343 206.331 43.3885 206.362 43.8241 206.484C44.2597 206.605 44.6681 206.815 45.0259 207.1L50.0304 211.1L61.8563 195.022C62.1305 194.649 62.4725 194.336 62.8627 194.101C63.253 193.866 63.6838 193.713 64.1306 193.652C64.5774 193.59 65.0315 193.621 65.4669 193.743C65.9023 193.864 66.3105 194.074 66.6682 194.359L66.6692 194.36L66.5958 194.466L66.6712 194.36C67.3928 194.938 67.8649 195.791 67.984 196.731C68.103 197.671 67.8592 198.623 67.306 199.376L53.3962 218.279C53.0744 218.714 52.6607 219.067 52.1871 219.309C51.7134 219.551 51.1927 219.676 50.6652 219.674L50.6622 219.678Z" fill="white"/>
</g>
</g>
<defs>
<clipPath id="clip0_28_20">
<rect width="114.069" height="68.5662" fill="white" transform="translate(0 172.434)"/>
</clipPath>
</defs>
</svg>
