<svg width="475" height="195" viewBox="0 0 475 195" fill="none" xmlns="http://www.w3.org/2000/svg">
<g id="dropshop-img--4">
<g id="Growth line">
<path id="Vector" d="M183.513 187.989L96.5629 129L10.8018 187.182L8.83871 184.809L96.5629 125.296L183.098 184.003L269.091 98.7678L269.436 98.6417L356.179 66.9858L357.402 69.7362L271.005 101.265L183.513 187.989Z" fill="#C6C6C6"/>
<path id="Vector_2" d="M9.81991 194.89C15.2433 194.89 19.6398 190.908 19.6398 185.995C19.6398 181.083 15.2433 177.101 9.81991 177.101C4.39652 177.101 0 181.083 0 185.995C0 190.908 4.39652 194.89 9.81991 194.89Z" fill="#78509C"/>
<path id="Vector_3" d="M96.5626 137.077C101.986 137.077 106.383 133.095 106.383 128.182C106.383 123.27 101.986 119.288 96.5626 119.288C91.1392 119.288 86.7427 123.27 86.7427 128.182C86.7427 133.095 91.1392 137.077 96.5626 137.077Z" fill="#78509C"/>
<path id="Vector_4" d="M183.305 194.89C188.729 194.89 193.125 190.908 193.125 185.995C193.125 181.083 188.729 177.101 183.305 177.101C177.882 177.101 173.485 181.083 173.485 185.995C173.485 190.908 177.882 194.89 183.305 194.89Z" fill="#78509C"/>
<path id="Vector_5" d="M270.048 108.911C275.471 108.911 279.867 104.929 279.867 100.017C279.867 95.1047 275.471 91.1226 270.048 91.1226C264.624 91.1226 260.228 95.1047 260.228 100.017C260.228 104.929 264.624 108.911 270.048 108.911Z" fill="#78509C"/>
<path id="Vector_6" d="M356.79 76.2985C362.213 76.2985 366.61 72.3163 366.61 67.4041C366.61 62.4919 362.213 58.5098 356.79 58.5098C351.367 58.5098 346.97 62.4919 346.97 67.4041C346.97 72.3163 351.367 76.2985 356.79 76.2985Z" fill="#78509C"/>
</g>
<g id="Money">
<path id="Vector_7" d="M429.073 0C417.246 0.00457326 405.886 4.6107 397.396 12.8435C388.906 21.0762 383.953 32.2895 383.584 44.11C383.571 44.5715 383.565 45.0396 383.565 45.5077C383.565 54.5083 386.234 63.3067 391.234 70.7904C396.235 78.2741 403.342 84.1069 411.658 87.5513C419.973 90.9957 429.123 91.8969 437.951 90.141C446.778 88.385 454.887 84.0509 461.251 77.6865C467.616 71.3221 471.95 63.2134 473.706 54.3858C475.462 45.5582 474.561 36.4081 471.116 28.0927C467.672 19.7772 461.839 12.6699 454.355 7.66943C446.872 2.66898 438.073 0 429.073 0ZM429.073 89.7152C417.352 89.703 406.115 85.0415 397.827 76.7536C389.539 68.4657 384.877 57.2285 384.865 45.5077C384.865 44.9031 384.878 44.305 384.904 43.7134C385.256 35.0538 388.146 26.6887 393.214 19.6583C398.282 12.6279 405.305 7.24231 413.409 4.17124C421.514 1.10018 430.342 0.479116 438.797 2.38529C447.251 4.29146 454.959 8.64076 460.961 14.8924C466.964 21.144 470.996 29.0221 472.557 37.5471C474.118 46.0722 473.139 54.868 469.741 62.8408C466.343 70.8137 460.676 77.6118 453.446 82.39C446.215 87.1681 437.739 89.7154 429.073 89.7152Z" fill="#3F3D56"/>
<path id="Vector_8" d="M467.429 45.5077C467.429 55.6805 463.388 65.4366 456.195 72.6298C449.002 79.8231 439.245 83.8642 429.073 83.8642C418.9 83.8642 409.144 79.8231 401.951 72.6298C394.757 65.4366 390.716 55.6805 390.716 45.5077C390.716 44.292 390.775 43.0958 390.885 41.9126C391.809 32.0948 396.479 23.0102 403.926 16.5451C411.372 10.0799 421.022 6.73099 430.872 7.19364C440.723 7.65629 450.016 11.895 456.824 19.0296C463.631 26.1642 467.429 35.6465 467.429 45.5077Z" fill="#E6E6E6"/>
<path id="Vector_9" d="M440.495 48.0561C439.565 46.8337 438.342 45.8655 436.939 45.2411C435.208 44.5117 433.421 43.9247 431.595 43.4858V33.0451C434.402 33.4683 437.034 34.6685 439.195 36.5101L441.314 31.9919C440.095 30.9059 438.696 30.0413 437.179 29.437C435.498 28.7563 433.734 28.3037 431.933 28.0912V22.7993H427.025V28.1432C425.129 28.3561 423.301 28.97 421.661 29.944C420.18 30.8208 418.933 32.0431 418.027 33.5066C417.162 34.9349 416.714 36.5765 416.733 38.2459C416.649 40.0551 417.173 41.8404 418.222 43.3168C419.188 44.595 420.463 45.6063 421.928 46.2553C423.686 47.0062 425.504 47.6085 427.363 48.0561V58.0613C424.05 57.8114 420.894 56.5522 418.32 54.4532L416.2 58.9779C417.64 60.1681 419.277 61.0966 421.037 61.7214C422.966 62.4116 424.981 62.8317 427.025 62.9696V68.216H431.933V62.8721C434.659 62.5742 437.216 61.4019 439.221 59.5305C440.104 58.6838 440.801 57.663 441.269 56.5328C441.737 55.4025 441.965 54.1874 441.938 52.9644C442.02 51.2129 441.511 49.4847 440.495 48.0561ZM427.363 42.3806C426.167 42.018 425.056 41.4214 424.093 40.6253C423.711 40.2859 423.409 39.8662 423.209 39.3963C423.009 38.9265 422.916 38.4182 422.935 37.9079C422.9 36.75 423.326 35.6253 424.119 34.7809C424.998 33.8949 426.132 33.3061 427.363 33.0971V42.3806ZM434.677 56.215C433.847 57.0655 432.767 57.6282 431.595 57.8207V49.2133C432.715 49.5139 433.764 50.038 434.677 50.754C435.023 51.0496 435.297 51.4193 435.481 51.8358C435.664 52.2522 435.752 52.7047 435.736 53.1595C435.781 54.2752 435.403 55.3667 434.677 56.215Z" fill="#78509C"/>
</g>
</g>
</svg>
