<svg width="224" height="236" viewBox="0 0 224 236" fill="none" xmlns="http://www.w3.org/2000/svg">
<g id="dropshop-img--2">
<g id="Group 43">
<path id="Vector" d="M194.147 101.877H35.0692C32.5839 101.88 30.2011 102.821 28.4437 104.495C26.6863 106.168 25.6978 108.437 25.695 110.803V205.109C25.6978 207.475 26.6864 209.744 28.4438 211.418C30.2011 213.091 32.5839 214.032 35.0692 214.035H194.147C196.632 214.032 199.015 213.091 200.772 211.418C202.53 209.744 203.518 207.475 203.521 205.109V110.803C203.518 108.437 202.53 106.168 200.772 104.494C199.015 102.821 196.632 101.88 194.147 101.877Z" fill="#78509C"/>
<path id="Vector_2" d="M194.147 101.877H35.0692C32.5839 101.88 30.2011 102.821 28.4437 104.495C26.6863 106.168 25.6978 108.437 25.695 110.803V205.109C25.6978 207.475 26.6864 209.744 28.4438 211.418C30.2011 213.091 32.5839 214.032 35.0692 214.035H194.147C196.632 214.032 199.015 213.091 200.772 211.418C202.53 209.744 203.518 207.475 203.521 205.109V110.803C203.518 108.437 202.53 106.168 200.772 104.494C199.015 102.821 196.632 101.88 194.147 101.877ZM197.223 169.618C197.185 179.219 193.197 188.423 186.114 195.256C179.031 202.089 169.417 206.007 159.335 206.169C143.194 206.369 168.266 206.447 148.799 206.447C104.283 206.447 57.8649 206.042 40.5458 205.779C38.2672 205.734 36.0972 204.843 34.4991 203.296C32.9011 201.748 32.0017 199.668 31.9929 197.497V110.81C31.9938 110.033 32.3179 109.288 32.8943 108.738C33.4707 108.188 34.2524 107.877 35.0686 107.874H194.14C194.956 107.875 195.739 108.184 196.316 108.733C196.894 109.281 197.22 110.025 197.223 110.802V169.618Z" fill="#3F3D56"/>
<path id="Vector_3" d="M174.564 47.573H53.3642C52.2918 47.5745 51.2461 47.891 50.3697 48.4795C49.4933 49.0679 48.829 49.8996 48.4675 50.8609L29.749 100.866C29.4696 101.612 29.3825 102.412 29.4949 103.197C29.6074 103.982 29.9162 104.73 30.3952 105.378C30.8743 106.026 31.5098 106.555 32.2481 106.92C32.9865 107.285 33.8062 107.477 34.6383 107.478L197.188 107.753H197.195C198.055 107.753 198.902 107.549 199.659 107.161C200.417 106.773 201.061 106.211 201.535 105.528C202.008 104.844 202.296 104.059 202.373 103.243C202.449 102.427 202.312 101.606 201.973 100.853L179.343 50.573C178.942 49.6822 178.276 48.9229 177.427 48.3895C176.577 47.8562 175.582 47.5722 174.564 47.573Z" fill="#3F3D56"/>
<path id="Vector_4" d="M202.394 101.939C202.393 102.609 202.25 103.273 201.973 103.889L179.344 142.593C178.941 143.482 178.274 144.239 177.425 144.772C176.576 145.304 175.581 145.589 174.565 145.59H53.3661C52.2933 145.589 51.247 145.273 50.37 144.685C49.4929 144.097 48.8277 143.265 48.4652 142.304L29.7502 103.876C29.5208 103.264 29.4204 102.614 29.4547 101.965C29.4889 101.316 29.6572 100.68 29.95 100.092C30.2427 99.5051 30.6541 98.9786 31.1606 98.5428C31.6672 98.1071 32.2589 97.7706 32.9021 97.5528C33.4585 97.3615 34.0455 97.2636 34.6371 97.2634L54.4931 97.2278L62.5973 97.2144L169.238 97.0363L177.347 97.0229L197.189 96.9873H197.194C198.573 96.9875 199.895 97.5093 200.871 98.4378C201.846 99.3664 202.394 100.626 202.394 101.939Z" fill="#3F3D56"/>
<path id="Vector_5" d="M46.9949 172.617C49.3983 172.617 82.4019 174.538 82.4019 176.826C82.4019 179.115 49.3983 180.905 46.9949 180.905C45.8408 180.905 44.7339 180.468 43.9178 179.691C43.1017 178.914 42.6432 177.86 42.6432 176.761C42.6432 175.662 43.1017 174.608 43.9178 173.831C44.7339 173.054 45.8408 172.617 46.9949 172.617Z" fill="#3F3D56"/>
</g>
<g id="paper">
<path id="Vector_6" d="M167.017 17.1526H64.8233C62.0845 17.1556 59.4588 18.1929 57.5222 20.0369C55.5856 21.8809 54.4962 24.3811 54.4931 26.9889V145.59H174.565C175.551 145.593 176.516 145.326 177.347 144.82V26.9889C177.344 24.3811 176.254 21.8809 174.318 20.0369C172.381 18.1929 169.756 17.1556 167.017 17.1526Z" fill="#E6E6E6"/>
<path id="Vector_7" d="M128.011 25.1274H72.0063C69.5124 25.1298 67.1213 26.0738 65.3575 27.7525C63.5936 29.4312 62.601 31.7075 62.5973 34.0821V145.59H169.238V64.3836C169.226 53.9759 164.878 43.9979 157.149 36.6386C149.42 29.2792 138.941 25.1394 128.011 25.1274Z" fill="white"/>
</g>
<g id="paper-lines">
<path id="Vector_8" d="M151.07 135.687H80.7652C80.1574 135.687 79.5746 135.917 79.1449 136.326C78.7151 136.735 78.4737 137.29 78.4737 137.869C78.4737 138.448 78.7151 139.003 79.1449 139.412C79.5746 139.821 80.1574 140.051 80.7652 140.051H151.07C151.678 140.051 152.261 139.821 152.691 139.412C153.12 139.003 153.362 138.448 153.362 137.869C153.362 137.29 153.12 136.735 152.691 136.326C152.261 135.917 151.678 135.687 151.07 135.687Z" fill="#E4E4E4"/>
<path id="Vector_9" d="M151.07 127.057H80.7652C80.1568 127.057 79.5734 127.287 79.1432 127.697C78.713 128.107 78.4714 128.662 78.4714 129.241C78.4714 129.821 78.713 130.376 79.1432 130.786C79.5734 131.195 80.1568 131.426 80.7652 131.426H151.07C151.679 131.426 152.262 131.195 152.692 130.786C153.122 130.376 153.364 129.821 153.364 129.241C153.364 128.662 153.122 128.107 152.692 127.697C152.262 127.287 151.679 127.057 151.07 127.057Z" fill="#E4E4E4"/>
<path id="Vector_10" d="M111.241 118.432H80.7651C80.1574 118.432 79.5746 118.662 79.1449 119.071C78.7151 119.48 78.4737 120.035 78.4737 120.614C78.4737 121.193 78.7151 121.748 79.1449 122.157C79.5746 122.566 80.1574 122.796 80.7651 122.796H111.241C111.849 122.796 112.432 122.566 112.862 122.157C113.291 121.748 113.533 121.193 113.533 120.614C113.533 120.035 113.291 119.48 112.862 119.071C112.432 118.662 111.849 118.432 111.241 118.432Z" fill="#E4E4E4"/>
<path id="Vector_11" d="M151.07 100.363H80.7652C80.1568 100.363 79.5734 100.593 79.1432 101.002C78.713 101.412 78.4714 101.967 78.4714 102.547C78.4714 103.126 78.713 103.681 79.1432 104.091C79.5734 104.501 80.1568 104.731 80.7652 104.731H151.07C151.679 104.731 152.262 104.501 152.692 104.091C153.122 103.681 153.364 103.126 153.364 102.547C153.364 101.967 153.122 101.412 152.692 101.002C152.262 100.593 151.679 100.363 151.07 100.363Z" fill="#E4E4E4"/>
<path id="Vector_12" d="M151.07 91.7375H80.7652C80.1574 91.7375 79.5746 91.9674 79.1449 92.3766C78.7151 92.7858 78.4737 93.3408 78.4737 93.9194C78.4737 94.4981 78.7151 95.0531 79.1449 95.4623C79.5746 95.8714 80.1574 96.1013 80.7652 96.1013H151.07C151.678 96.1013 152.261 95.8714 152.691 95.4623C153.12 95.0531 153.362 94.4981 153.362 93.9194C153.362 93.3408 153.12 92.7858 152.691 92.3766C152.261 91.9674 151.678 91.7375 151.07 91.7375Z" fill="#E4E4E4"/>
<path id="Vector_13" d="M111.241 83.1079H80.7652C80.1568 83.1079 79.5734 83.338 79.1432 83.7476C78.713 84.1572 78.4714 84.7128 78.4714 85.292C78.4714 85.8713 78.713 86.4268 79.1432 86.8364C79.5734 87.246 80.1568 87.4761 80.7652 87.4761H111.241C111.85 87.4761 112.433 87.246 112.863 86.8364C113.293 86.4268 113.535 85.8713 113.535 85.292C113.535 84.7128 113.293 84.1572 112.863 83.7476C112.433 83.338 111.85 83.1079 111.241 83.1079Z" fill="#E4E4E4"/>
<path id="Vector_14" d="M151.07 65.0383H80.7652C80.1568 65.0383 79.5734 65.2684 79.1432 65.678C78.713 66.0876 78.4714 66.6432 78.4714 67.2224C78.4714 67.8017 78.713 68.3572 79.1432 68.7668C79.5734 69.1764 80.1568 69.4066 80.7652 69.4066H151.07C151.679 69.4066 152.262 69.1764 152.692 68.7668C153.122 68.3572 153.364 67.8017 153.364 67.2224C153.364 66.6432 153.122 66.0876 152.692 65.678C152.262 65.2684 151.679 65.0383 151.07 65.0383Z" fill="#78509C"/>
<path id="Vector_15" d="M151.07 56.4131H80.7652C80.1568 56.4131 79.5734 56.6432 79.1432 57.0528C78.713 57.4624 78.4714 58.0179 78.4714 58.5972C78.4714 59.1765 78.713 59.732 79.1432 60.1416C79.5734 60.5512 80.1568 60.7813 80.7652 60.7813H151.07C151.679 60.7813 152.262 60.5512 152.692 60.1416C153.122 59.732 153.364 59.1765 153.364 58.5972C153.364 58.0179 153.122 57.4624 152.692 57.0528C152.262 56.6432 151.679 56.4131 151.07 56.4131Z" fill="#78509C"/>
<path id="Vector_16" d="M111.241 47.7834H80.7652C80.1568 47.7834 79.5734 48.0136 79.1432 48.4232C78.713 48.8328 78.4714 49.3883 78.4714 49.9676C78.4714 50.5468 78.713 51.1024 79.1432 51.512C79.5734 51.9216 80.1568 52.1517 80.7652 52.1517H111.241C111.85 52.1517 112.433 51.9216 112.863 51.512C113.293 51.1024 113.535 50.5468 113.535 49.9676C113.535 49.3883 113.293 48.8328 112.863 48.4232C112.433 48.0136 111.85 47.7834 111.241 47.7834Z" fill="#78509C"/>
</g>
<g id="ok-circle">
<path id="Vector_17" d="M173.516 33.9865C183.372 33.9865 191.362 26.3784 191.362 16.9933C191.362 7.60814 183.372 0 173.516 0C163.659 0 155.669 7.60814 155.669 16.9933C155.669 26.3784 163.659 33.9865 173.516 33.9865Z" fill="#78509C"/>
<path id="Vector_18" d="M171.081 25.8374C170.773 25.8374 170.469 25.7691 170.193 25.6378C169.918 25.5065 169.678 25.3159 169.493 25.0811L164.624 18.8997C164.467 18.7011 164.352 18.475 164.287 18.2343C164.222 17.9935 164.207 17.7428 164.244 17.4966C164.28 17.2504 164.367 17.0135 164.5 16.7994C164.633 16.5854 164.809 16.3984 165.018 16.2492C165.227 16.1 165.465 15.9916 165.718 15.93C165.971 15.8685 166.234 15.8551 166.493 15.8906C166.751 15.9261 167 16.0098 167.224 16.137C167.449 16.2641 167.644 16.4322 167.801 16.6315L170.986 20.6753L179.167 8.99043C179.459 8.5733 179.913 8.28372 180.43 8.1854C180.946 8.08708 181.482 8.18807 181.92 8.46617C182.358 8.74426 182.662 9.17667 182.766 9.66827C182.869 10.1599 182.763 10.6704 182.471 11.0875L172.733 24.9956C172.557 25.2471 172.32 25.4548 172.042 25.6012C171.764 25.7475 171.454 25.8283 171.136 25.8368C171.118 25.8371 171.1 25.8374 171.081 25.8374Z" fill="white"/>
</g>
</g>
</svg>
