<svg width="236" height="249" viewBox="0 0 236 249" fill="none" xmlns="http://www.w3.org/2000/svg">
<g id="dropshop-img--3" clip-path="url(#clip0_30_156)">
<g id="square-1">
<path id="Vector" d="M77.8592 115.198C84.7766 115.198 90.3843 109.753 90.3843 103.036C90.3843 96.3196 84.7766 90.8745 77.8592 90.8745C70.9417 90.8745 65.334 96.3196 65.334 103.036C65.334 109.753 70.9417 115.198 77.8592 115.198Z" fill="#03A7D3" fill-opacity="0.54"/>
<path id="Vector_2" d="M87.0882 115.839C84.4806 115.839 81.9315 115.088 79.7634 113.681C77.5952 112.274 75.9054 110.275 74.9075 107.936C73.9096 105.596 73.6485 103.022 74.1572 100.539C74.6659 98.0555 75.9216 95.7744 77.7655 93.984C79.6093 92.1936 81.9585 90.9743 84.5161 90.4804C87.0736 89.9864 89.7245 90.2399 92.1336 91.2089C94.5428 92.1778 96.6019 93.8187 98.0506 95.924C99.4993 98.0293 100.273 100.504 100.273 103.036C100.273 106.432 98.8835 109.688 96.411 112.089C93.9384 114.49 90.5849 115.839 87.0882 115.839ZM87.0882 91.5146C84.7414 91.5146 82.4472 92.1904 80.4959 93.4564C78.5445 94.7224 77.0236 96.5219 76.1255 98.6272C75.2274 100.733 74.9924 103.049 75.4503 105.284C75.9081 107.519 77.0383 109.572 78.6977 111.184C80.3572 112.795 82.4715 113.892 84.7733 114.337C87.0751 114.781 89.4609 114.553 91.6291 113.681C93.7973 112.809 95.6505 111.332 96.9544 109.438C98.2582 107.543 98.9542 105.315 98.9542 103.036C98.9542 99.9807 97.704 97.05 95.4787 94.8893C93.2534 92.7285 90.2353 91.5146 87.0882 91.5146Z" fill="#2F2E41"/>
</g>
<g id="box">
<path id="Vector_3" d="M156.874 244.871H35.5781C34.0926 244.869 32.6683 244.295 31.6179 243.275C30.5674 242.255 29.9765 240.872 29.9748 239.43V129.972C29.9765 128.53 30.5674 127.147 31.6179 126.127C32.6683 125.107 34.0926 124.533 35.5781 124.531H156.874C158.36 124.533 159.784 125.107 160.835 126.127C161.885 127.147 162.476 128.53 162.478 129.972V239.43C162.476 240.872 161.885 242.255 160.835 243.275C159.784 244.295 158.36 244.869 156.874 244.871Z" fill="#78509C"/>
<path id="Vector_4" d="M104.795 248.714H87.6554C86.1698 248.712 84.7456 248.138 83.6951 247.118C82.6447 246.098 82.0537 244.715 82.052 243.273V126.72C82.0537 125.278 82.6447 123.895 83.6951 122.875C84.7456 121.855 86.1698 121.281 87.6554 121.28H104.795C106.281 121.281 107.705 121.855 108.755 122.875C109.806 123.895 110.397 125.278 110.398 126.72V243.273C110.397 244.715 109.806 246.098 108.755 247.118C107.705 248.138 106.281 248.712 104.795 248.714Z" fill="#3F3D56"/>
<path id="Vector_5" opacity="0.1" d="M162.148 137.922V179.708L119.345 124.852H151.95L162.148 137.922Z" fill="black"/>
</g>
<g id="square-3">
<path id="Vector_6" d="M101.711 -0.0421422L75.8638 14.448L90.7867 39.5457L116.634 25.0555L101.711 -0.0421422Z" fill="#FF6584"/>
<path id="Vector_7" d="M102.039 44.7764L86.4567 18.5697L113.446 3.43945L129.028 29.6465L102.039 44.7764ZM88.2579 19.0385L102.522 43.0274L127.227 29.1776L112.963 5.18848L88.2579 19.0385Z" fill="#2F2E41"/>
</g>
<g id="box-cover">
<path id="Vector_8" d="M189.101 113.696C188.392 124.988 172.684 133.246 172.684 133.246C172.684 133.246 158.124 123.197 158.833 111.905C159.542 100.613 175.25 92.3552 175.25 92.3552C175.25 92.3552 189.81 102.404 189.101 113.696Z" fill="#3F3D56"/>
<path id="Vector_9" d="M189.812 148.927C178.181 148.274 169.628 133.047 169.628 133.047C169.628 133.047 179.931 118.878 191.562 119.531C203.193 120.184 211.747 135.411 211.747 135.411C211.747 135.411 201.443 149.58 189.812 148.927Z" fill="#3F3D56"/>
<path id="Vector_10" d="M198.485 209.451C197.619 209.452 196.764 209.259 195.988 208.885C195.212 208.512 194.536 207.968 194.013 207.298L104.838 93.0131C104.393 92.4436 104.069 91.7947 103.882 91.1034C103.696 90.4121 103.652 89.692 103.753 88.9842C103.853 88.2764 104.096 87.5948 104.468 86.9782C104.84 86.3616 105.333 85.8221 105.92 85.3906L119.056 75.7266C119.642 75.295 120.311 74.9799 121.022 74.7992C121.734 74.6185 122.476 74.5757 123.205 74.6733C123.934 74.771 124.636 75.0071 125.271 75.3682C125.906 75.7293 126.461 76.2084 126.906 76.778L216.081 191.062C216.525 191.631 216.85 192.28 217.036 192.972C217.222 193.663 217.266 194.383 217.166 195.091C217.065 195.799 216.822 196.48 216.45 197.097C216.078 197.714 215.585 198.253 214.999 198.684L201.863 208.348C200.891 209.065 199.705 209.452 198.485 209.451Z" fill="#78509C"/>
<path id="Vector_11" d="M162.791 120.647L140.197 137.269L157.316 159.208L179.909 142.585L162.791 120.647Z" fill="#3F3D56"/>
</g>
<g id="square-2">
<path id="Vector_12" d="M46.5651 37.045L38.8404 65.0378L67.6691 72.5385L75.3938 44.5457L46.5651 37.045Z" fill="#03A7D3" fill-opacity="0.54"/>
<path id="Vector_13" d="M55.4393 76.7234L25.3374 68.8916L33.4032 39.6619L63.5051 47.4937L55.4393 76.7234ZM26.952 67.9864L54.5071 75.1557L61.8905 48.3989L34.3353 41.2296L26.952 67.9864Z" fill="#2F2E41"/>
</g>
</g>
<defs>
<clipPath id="clip0_30_156">
<rect width="236" height="249" fill="white"/>
</clipPath>
</defs>
</svg>
