<svg width="291" height="309" viewBox="0 0 291 309" fill="none" xmlns="http://www.w3.org/2000/svg">
<g id="dropshop-img--3">
<g id="boxes">
<g id="white-box">
<path id="Vector" d="M262.958 164.321C262.945 162.253 262.213 160.257 260.89 158.686C259.567 157.115 257.74 156.071 255.733 155.739L132.224 135.118C131.04 134.918 129.827 134.973 128.665 135.278L99.7201 142.888L83.1123 147.259L52.4633 155.315C50.6132 155.804 48.9748 156.903 47.8051 158.44C46.6354 159.977 46.0005 161.866 46 163.809V266.734C46.0092 268.74 46.691 270.683 47.9327 272.242C49.1745 273.801 50.902 274.883 52.83 275.309L178.632 302.524C179.223 302.653 179.826 302.717 180.43 302.714C181.31 302.716 182.185 302.58 183.025 302.312L257.767 278.313C259.531 277.753 261.071 276.63 262.157 275.111C263.244 273.591 263.82 271.756 263.799 269.877L262.958 164.321Z" fill="white"/>
<path id="Vector_2" d="M130.825 142.676C130.735 142.675 130.646 142.687 130.558 142.711L54.3561 162.747C54.1251 162.808 53.9204 162.945 53.7743 163.137C53.6283 163.329 53.549 163.565 53.549 163.807V266.731C53.5499 266.981 53.6349 267.224 53.79 267.419C53.945 267.614 54.1608 267.749 54.4017 267.802L180.204 295.017C180.386 295.056 180.575 295.047 180.753 294.99L255.497 270.992C255.717 270.922 255.909 270.782 256.045 270.592C256.18 270.402 256.252 270.173 256.249 269.938L255.411 164.382C255.409 164.124 255.318 163.875 255.152 163.678C254.987 163.482 254.759 163.352 254.508 163.311L131 142.69C130.942 142.68 130.884 142.676 130.825 142.676Z" fill="white"/>
<path id="Vector_3" d="M262.958 164.321C262.945 162.253 262.213 160.257 260.89 158.686C259.567 157.115 257.74 156.071 255.733 155.739L132.224 135.118C131.04 134.918 129.827 134.973 128.665 135.278L99.7201 142.888L83.1123 147.259L52.4633 155.315C50.6132 155.804 48.9748 156.903 47.8051 158.44C46.6354 159.977 46.0005 161.866 46 163.809V266.734C46.0092 268.74 46.691 270.683 47.9327 272.242C49.1745 273.801 50.902 274.883 52.83 275.309L178.632 302.524C179.223 302.653 179.826 302.717 180.43 302.714C181.31 302.716 182.185 302.58 183.025 302.312L257.767 278.313C259.531 277.753 261.071 276.63 262.157 275.111C263.244 273.591 263.82 271.756 263.799 269.877L262.958 164.321ZM257.12 276.222L182.378 300.221C181.312 300.559 180.178 300.614 179.085 300.382L53.2757 273.167C51.8302 272.846 50.5353 272.034 49.6047 270.865C48.6741 269.695 48.1634 268.238 48.1569 266.734V163.809C48.1578 162.462 48.565 161.148 49.3234 160.043C50.0819 158.939 51.1552 158.097 52.3987 157.632C52.5961 157.557 52.7978 157.493 53.0026 157.442L85.4274 148.919L104.602 143.875L129.204 137.406C129.732 137.262 130.276 137.191 130.822 137.194C131.174 137.193 131.525 137.223 131.872 137.281L255.381 157.903C256.374 158.069 257.317 158.467 258.133 159.067C258.949 159.668 259.616 160.453 260.082 161.36C260.549 162.281 260.795 163.3 260.801 164.336L261.643 269.892C261.658 271.301 261.227 272.678 260.412 273.818C259.597 274.959 258.443 275.802 257.12 276.222Z" fill="#CCCCCC"/>
<path id="Vector_4" d="M260.083 161.36C259.999 161.416 259.906 161.458 259.809 161.484L223.481 171.47L212.172 174.577L180.006 183.414C179.914 183.437 179.82 183.45 179.725 183.451C179.66 183.45 179.595 183.445 179.531 183.436L49.832 159.394L49.4007 159.313C49.1195 159.26 48.8706 159.095 48.7084 158.856C48.5463 158.616 48.484 158.321 48.5354 158.035C48.5867 157.749 48.7474 157.495 48.9823 157.329C49.2173 157.163 49.5073 157.099 49.7889 157.15L52.3987 157.632L179.682 181.229L207.405 173.612L222.913 169.35L258.68 159.518L259.248 159.365C259.494 159.299 259.755 159.323 259.985 159.432C260.214 159.542 260.399 159.73 260.507 159.964C260.534 160.02 260.556 160.079 260.571 160.139C260.631 160.369 260.615 160.612 260.527 160.832C260.439 161.053 260.283 161.238 260.083 161.36Z" fill="#CCCCCC"/>
<path id="Vector_5" d="M180.804 302.97C180.519 302.97 180.246 302.856 180.044 302.652C179.842 302.449 179.728 302.173 179.725 301.884L178.647 182.365C178.644 182.074 178.755 181.794 178.956 181.587C179.156 181.379 179.429 181.261 179.715 181.259H179.725C180.009 181.259 180.282 181.373 180.484 181.576C180.686 181.78 180.801 182.056 180.804 182.345L181.882 301.864C181.884 302.154 181.773 302.434 181.573 302.642C181.373 302.849 181.099 302.967 180.813 302.97H180.804Z" fill="#CCCCCC"/>
<path id="Vector_6" d="M223.481 288.43L212.171 291.537L207.405 173.612L85.7796 149.007C85.6604 148.985 85.5427 148.956 85.4273 148.919C84.493 148.649 83.6767 148.064 83.1122 147.26L99.72 142.888L104.602 143.875L220.008 167.216C220.615 167.338 221.189 167.592 221.69 167.96C222.191 168.329 222.608 168.803 222.913 169.351C223.272 169.987 223.473 287.67 223.481 288.43Z" fill="#CCCCCC"/>
<path id="Vector_7" d="M87.5367 226.19C87.4375 226.211 87.3363 226.22 87.235 226.219L58.3387 225.732C57.9775 225.725 57.6336 225.575 57.3827 225.315C57.1317 225.054 56.9942 224.705 57.0002 224.343C57.0062 223.981 57.1553 223.637 57.4147 223.385C57.6742 223.133 58.0228 222.995 58.384 223L87.2803 223.487C87.6158 223.493 87.9374 223.622 88.1837 223.851C88.43 224.079 88.5837 224.39 88.6154 224.724C88.6471 225.059 88.5546 225.393 88.3556 225.663C88.1566 225.934 87.8651 226.121 87.5367 226.19Z" fill="#E6E6E6"/>
<path id="Vector_8" d="M97.5398 241.669C97.4406 241.689 97.3394 241.699 97.2382 241.697L68.3419 241.21C67.9806 241.203 67.6368 241.053 67.3858 240.793C67.1349 240.533 66.9973 240.183 67.0033 239.822C67.0093 239.46 67.1584 239.115 67.4178 238.864C67.6773 238.612 68.0259 238.473 68.3872 238.479L97.2835 238.966C97.6189 238.972 97.9405 239.101 98.1868 239.329C98.4331 239.557 98.5868 239.868 98.6185 240.203C98.6502 240.537 98.5578 240.871 98.3588 241.142C98.1598 241.412 97.8682 241.6 97.5398 241.669Z" fill="#E6E6E6"/>
</g>
<g id="purple-box">
<path id="Vector_9" d="M261.624 69.0011C261.615 67.4665 261.062 65.9849 260.066 64.819C259.069 63.6532 257.692 62.8785 256.179 62.6322L163.098 47.3284C162.206 47.1805 161.292 47.2211 160.416 47.4478L138.602 53.0952L126.086 56.3392L102.987 62.3176C101.593 62.6802 100.358 63.4958 99.4768 64.6366C98.5953 65.7775 98.1168 67.179 98.1164 68.6214V145.005C98.1233 146.494 98.6371 147.936 99.573 149.092C100.509 150.249 101.811 151.052 103.264 151.368L198.073 171.566C198.518 171.661 198.972 171.709 199.428 171.707C200.091 171.708 200.751 171.607 201.384 171.408L257.712 153.598C259.042 153.183 260.202 152.349 261.021 151.222C261.84 150.094 262.274 148.732 262.258 147.338L261.624 69.0011Z" fill="white"/>
<path id="Vector_10" d="M162.044 52.9375C161.976 52.9374 161.909 52.9462 161.843 52.9635L104.414 67.8334C104.24 67.8785 104.086 67.9803 103.975 68.1227C103.865 68.2651 103.806 68.4401 103.806 68.6201V145.002C103.806 145.188 103.87 145.369 103.987 145.513C104.104 145.658 104.267 145.758 104.448 145.798L199.258 165.995C199.395 166.023 199.537 166.017 199.671 165.974L256.001 148.165C256.167 148.113 256.312 148.009 256.414 147.868C256.516 147.727 256.57 147.557 256.568 147.383L255.937 69.0466C255.935 68.8549 255.866 68.6699 255.742 68.5244C255.617 68.3789 255.445 68.2821 255.256 68.2514L162.175 52.9481C162.132 52.9411 162.088 52.9376 162.044 52.9375Z" fill="#78509C"/>
<path id="Vector_11" d="M261.624 69.0011C261.615 67.4665 261.062 65.9849 260.066 64.819C259.069 63.6532 257.692 62.8785 256.179 62.6322L163.098 47.3284C162.206 47.1805 161.292 47.2211 160.416 47.4478L138.602 53.0952L126.086 56.3392L102.987 62.3176C101.593 62.6802 100.358 63.4958 99.4768 64.6366C98.5953 65.7775 98.1168 67.179 98.1164 68.6214V145.005C98.1233 146.494 98.6371 147.936 99.573 149.092C100.509 150.249 101.811 151.052 103.264 151.368L198.073 171.566C198.518 171.661 198.972 171.709 199.428 171.707C200.091 171.708 200.751 171.607 201.384 171.408L257.712 153.598C259.042 153.183 260.202 152.349 261.021 151.222C261.84 150.094 262.274 148.732 262.258 147.338L261.624 69.0011ZM257.225 152.046L200.896 169.857C200.093 170.107 199.238 170.148 198.415 169.976L103.6 149.779C102.51 149.541 101.534 148.938 100.833 148.071C100.132 147.203 99.7468 146.121 99.7419 145.005V68.6214C99.7426 67.6217 100.049 66.6463 100.621 65.8266C101.193 65.0069 102.002 64.3824 102.939 64.0373C103.087 63.9814 103.239 63.9343 103.394 63.8962L127.83 57.5708L142.281 53.8275L160.822 49.0264C161.22 48.9202 161.63 48.8673 162.042 48.8691C162.307 48.869 162.571 48.8908 162.833 48.9342L255.914 64.2381C256.663 64.3611 257.373 64.657 257.988 65.1024C258.603 65.5478 259.106 66.1304 259.457 66.8041C259.809 67.4871 259.994 68.2436 259.999 69.012L260.633 147.349C260.645 148.394 260.319 149.416 259.706 150.262C259.092 151.109 258.222 151.734 257.225 152.046Z" fill="#3F3D56"/>
<path id="Vector_12" d="M259.457 66.8039C259.394 66.8455 259.324 66.8767 259.251 66.8961L231.873 74.3066L223.35 76.6123L199.108 83.171C199.039 83.188 198.968 83.1971 198.897 83.1981C198.848 83.1972 198.799 83.1936 198.751 83.1873L101.004 65.3446L100.679 65.2849C100.467 65.2452 100.28 65.1231 100.158 64.9453C100.035 64.7675 99.9884 64.5485 100.027 64.3362C100.066 64.1239 100.187 63.9355 100.364 63.8124C100.541 63.6892 100.76 63.6413 100.972 63.6791L102.939 64.0372L198.864 81.549L219.757 75.8961L231.444 72.7333L258.401 65.4368L258.829 65.3229C259.014 65.274 259.21 65.2918 259.383 65.3731C259.557 65.4544 259.696 65.5941 259.777 65.7677C259.798 65.8092 259.814 65.8528 259.826 65.8979C259.87 66.0685 259.858 66.249 259.792 66.4123C259.726 66.5757 259.608 66.7131 259.457 66.8039Z" fill="#3F3D56"/>
<path id="Vector_13" d="M199.709 171.897C199.495 171.897 199.29 171.812 199.137 171.661C198.985 171.51 198.899 171.305 198.897 171.09L198.084 82.3922C198.082 82.1764 198.166 81.9687 198.317 81.8147C198.468 81.6607 198.674 81.5731 198.889 81.571H198.897C199.111 81.571 199.317 81.6557 199.469 81.8068C199.621 81.9578 199.708 82.1629 199.709 82.3774L200.522 171.076C200.524 171.291 200.44 171.499 200.289 171.653C200.138 171.807 199.932 171.895 199.717 171.897H199.709Z" fill="#3F3D56"/>
<path id="Vector_14" d="M231.873 161.107L223.35 163.412L219.757 75.8965L128.096 57.6361C128.006 57.6202 127.917 57.5984 127.83 57.571C127.126 57.3703 126.511 56.9361 126.086 56.3395L138.602 53.0955L142.281 53.8278L229.255 71.1498C229.713 71.2402 230.145 71.4286 230.523 71.702C230.901 71.9754 231.215 72.3274 231.444 72.7338C231.715 73.2058 231.867 160.542 231.873 161.107Z" fill="#3F3D56"/>
<path id="Vector_15" d="M136.766 122.731C136.664 122.73 136.563 122.719 136.465 122.697L108.274 116.323C107.922 116.243 107.615 116.026 107.422 115.72C107.229 115.414 107.166 115.044 107.245 114.691C107.325 114.338 107.541 114.031 107.847 113.837C108.152 113.644 108.522 113.579 108.874 113.659L137.065 120.032C137.392 120.106 137.681 120.298 137.876 120.572C138.07 120.845 138.157 121.181 138.12 121.515C138.083 121.849 137.925 122.158 137.675 122.382C137.425 122.606 137.101 122.73 136.766 122.731Z" fill="white"/>
</g>
</g>
</g>
</svg>
