<svg width="650" height="517" viewBox="0 0 650 517" fill="none" xmlns="http://www.w3.org/2000/svg">
<g id="undraw_stepping_up_g6oo 1" clip-path="url(#clip0_5_45)">
<g id="v-1">
<path id="Vector-1" d="M158.838 515.232H107.838C106.115 515.23 104.462 514.544 103.244 513.326C102.025 512.107 101.34 510.455 101.338 508.732V402.732C101.34 401.008 102.025 399.356 103.244 398.138C104.462 396.919 106.115 396.234 107.838 396.232H158.838C160.561 396.234 162.213 396.919 163.432 398.138C164.65 399.356 165.336 401.008 165.338 402.732V508.732C165.336 510.455 164.65 512.107 163.432 513.326C162.213 514.544 160.561 515.23 158.838 515.232Z" fill="#03A7D3" fill-opacity="0.54"/>
</g>
<g id="v-2">
<path id="Vector-2" d="M279.5 515H228.5C226.777 514.996 225.125 513.729 223.906 511.476C222.687 509.224 222.002 506.169 222 502.983V307.017C222.002 303.831 222.687 300.777 223.906 298.524C225.125 296.271 226.777 295.004 228.5 295H279.5C281.223 295.004 282.875 296.271 284.094 298.524C285.313 300.777 285.998 303.831 286 307.017V502.983C285.998 506.169 285.313 509.224 284.094 511.476C282.875 513.729 281.223 514.996 279.5 515Z" fill="#03A7D3"/>
</g>
<g id="v-3">
<path id="Vector-3" d="M401.5 515H350.5C348.777 514.994 347.125 512.972 345.906 509.378C344.687 505.784 344.002 500.911 344 495.828V183.172C344.002 178.089 344.687 173.216 345.906 169.622C347.125 166.028 348.777 164.006 350.5 164H401.5C403.223 164.006 404.875 166.028 406.094 169.622C407.313 173.216 407.998 178.089 408 183.172V495.828C407.998 500.911 407.313 505.784 406.094 509.378C404.875 512.972 403.223 514.994 401.5 515Z" fill="#78509C" fill-opacity="0.54"/>
</g>
<g id="v-4">
<path id="Vector-4" d="M522.967 515.732H471.967C470.244 515.73 468.592 515.044 467.373 513.826C466.155 512.607 465.469 510.955 465.467 509.232V34.2316C465.469 32.5083 466.155 30.8562 467.373 29.6376C468.592 28.4191 470.244 27.7336 471.967 27.7316H522.967C524.691 27.7336 526.343 28.4191 527.561 29.6376C528.78 30.8562 529.465 32.5083 529.467 34.2316V509.232C529.465 510.955 528.78 512.607 527.561 513.826C526.343 515.044 524.691 515.73 522.967 515.732Z" fill="#78509C"/>
</g>
<path id="Vector" d="M648.485 515.807H1.19064C0.875452 515.806 0.573473 515.68 0.350922 515.457C0.12837 515.234 0.00341797 514.932 0.00341797 514.617C0.00341797 514.301 0.12837 513.999 0.350922 513.776C0.573473 513.553 0.875452 513.427 1.19064 513.426H648.485C648.8 513.427 649.102 513.553 649.324 513.776C649.547 513.999 649.672 514.301 649.672 514.617C649.672 514.932 649.547 515.234 649.324 515.457C649.102 515.68 648.8 515.806 648.485 515.807Z" fill="#3F3D56"/>
</g>
<defs>
<clipPath id="clip0_5_45">
<rect width="649.675" height="516.232" fill="white"/>
</clipPath>
</defs>
</svg>
