<svg aria-hidden="true" style="position: absolute; width: 0; height: 0; overflow: hidden;" version="1.1" xmlns="http://www.w3.org/2000/svg" xmlns:xlink="http://www.w3.org/1999/xlink">
<defs>
<symbol id="icon-equalizer2" viewBox="0 0 32 32">
<path d="M28 14h0.5c0.825 0 1.5-0.675 1.5-1.5v-5c0-0.825-0.675-1.5-1.5-1.5h-0.5v-6h-4v6h-0.5c-0.825 0-1.5 0.675-1.5 1.5v5c0 0.825 0.675 1.5 1.5 1.5h0.5v18h4v-18zM24 8h4v4h-4v-4zM18.5 26c0.825 0 1.5-0.675 1.5-1.5v-5c0-0.825-0.675-1.5-1.5-1.5h-0.5v-18h-4v18h-0.5c-0.825 0-1.5 0.675-1.5 1.5v5c0 0.825 0.675 1.5 1.5 1.5h0.5v6h4v-6h0.5zM14 20h4v4h-4v-4zM8.5 14c0.825 0 1.5-0.675 1.5-1.5v-5c0-0.825-0.675-1.5-1.5-1.5h-0.5v-6h-4v6h-0.5c-0.825 0-1.5 0.675-1.5 1.5v5c0 0.825 0.675 1.5 1.5 1.5h0.5v18h4v-18h0.5zM4 8h4v4h-4v-4z"></path>
</symbol>
<symbol id="icon-magic-wand" viewBox="0 0 32 32">
<path d="M8 6l-4-4h-2v2l4 4zM10 0h2v4h-2zM18 10h4v2h-4zM20 4v-2h-2l-4 4 2 2zM0 10h4v2h-4zM10 18h2v4h-2zM2 18v2h2l4-4-2-2zM31.563 27.563l-19.879-19.879c-0.583-0.583-1.538-0.583-2.121 0l-1.879 1.879c-0.583 0.583-0.583 1.538 0 2.121l19.879 19.879c0.583 0.583 1.538 0.583 2.121 0l1.879-1.879c0.583-0.583 0.583-1.538 0-2.121zM15 17l-6-6 2-2 6 6-2 2z"></path>
</symbol>
<symbol id="icon-stats-dots" viewBox="0 0 32 32">
<path d="M4 28h28v4h-32v-32h4zM9 26c-1.657 0-3-1.343-3-3s1.343-3 3-3c0.088 0 0.176 0.005 0.262 0.012l3.225-5.375c-0.307-0.471-0.487-1.033-0.487-1.638 0-1.657 1.343-3 3-3s3 1.343 3 3c0 0.604-0.179 1.167-0.487 1.638l3.225 5.375c0.086-0.007 0.174-0.012 0.262-0.012 0.067 0 0.133 0.003 0.198 0.007l5.324-9.316c-0.329-0.482-0.522-1.064-0.522-1.691 0-1.657 1.343-3 3-3s3 1.343 3 3c0 1.657-1.343 3-3 3-0.067 0-0.133-0.003-0.198-0.007l-5.324 9.316c0.329 0.481 0.522 1.064 0.522 1.691 0 1.657-1.343 3-3 3s-3-1.343-3-3c0-0.604 0.179-1.167 0.487-1.638l-3.225-5.375c-0.086 0.007-0.174 0.012-0.262 0.012s-0.176-0.005-0.262-0.012l-3.225 5.375c0.307 0.471 0.487 1.033 0.487 1.637 0 1.657-1.343 3-3 3z"></path>
</symbol>
<symbol id="icon-rocket" viewBox="0 0 32 32">
<path d="M22 2l-10 10h-6l-6 8c0 0 6.357-1.77 10.065-0.94l-10.065 12.94 13.184-10.255c1.839 4.208-1.184 10.255-1.184 10.255l8-6v-6l10-10 2-10-10 2z"></path>
</symbol>
<symbol id="icon-truck" viewBox="0 0 32 32">
<path d="M32 18l-4-8h-6v-4c0-1.1-0.9-2-2-2h-18c-1.1 0-2 0.9-2 2v16l2 2h2.536c-0.341 0.588-0.536 1.271-0.536 2 0 2.209 1.791 4 4 4s4-1.791 4-4c0-0.729-0.196-1.412-0.536-2h11.073c-0.341 0.588-0.537 1.271-0.537 2 0 2.209 1.791 4 4 4s4-1.791 4-4c0-0.729-0.196-1.412-0.537-2h2.537v-6zM22 18v-6h4.146l3 6h-7.146z"></path>
</symbol>
<symbol id="icon-earth" viewBox="0 0 91 91">
<path d="M46.9961 83.4314L46.8553 83.4085C46.875 83.4238 46.8982 83.4338 46.9228 83.4378C46.9474 83.4418 46.9726 83.4396 46.9961 83.4314ZM79.0133 33.0522C78.9732 32.8398 78.8632 32.6469 78.7009 32.5042C78.5386 32.3614 78.3333 32.277 78.1175 32.2643C77.9018 32.2515 77.6879 32.3112 77.51 32.4339C77.332 32.5565 77.2001 32.7351 77.1353 32.9413C77.0731 33.1371 76.9506 33.3081 76.7852 33.4298C76.6198 33.5516 76.4201 33.6178 76.2147 33.619H73.4917C73.3155 33.6192 73.1426 33.5711 72.9918 33.4799L69.0526 31.1178C68.9018 31.0267 68.7289 30.9786 68.5527 30.9787H62.2514C62.0596 30.9785 61.872 31.0355 61.7128 31.1424L53.9417 36.3226C53.8073 36.412 53.6974 36.5335 53.6218 36.6761C53.5462 36.8187 53.5073 36.9779 53.5087 37.1393V44.4862C53.5085 44.6623 53.5562 44.8351 53.6467 44.9861C53.7373 45.1371 53.8672 45.2606 54.0226 45.3434L64.2122 50.7823C64.3653 50.8646 64.4936 50.9863 64.584 51.1349C64.6743 51.2834 64.7234 51.4533 64.7261 51.6271L64.7737 55.7617C64.7764 55.9329 64.8242 56.1003 64.9123 56.2471C65.0003 56.3939 65.1256 56.5149 65.2753 56.5978L69.3694 58.8631C69.5211 58.9474 69.6476 59.0706 69.7358 59.2201C69.824 59.3695 69.8707 59.5398 69.8711 59.7133V68.2677C69.8711 68.4546 69.9251 68.6376 70.0265 68.7946C70.1279 68.9516 70.2725 69.0761 70.4429 69.153C70.6133 69.2299 70.8022 69.2561 70.9871 69.2283C71.172 69.2005 71.3449 69.12 71.4851 68.9964C73.1362 67.5425 75.5036 65.4197 75.8186 64.9339C76.3397 64.1278 76.8284 63.3023 77.2849 62.4574C78.2302 60.7068 79.0308 58.8819 79.6787 57.0009C81.9106 50.5394 80.1469 38.9241 79.0133 33.0522ZM50.4108 53.2975L39.6158 45.2008C39.4939 45.1094 39.3457 45.06 39.1933 45.06H34.0713C33.9836 45.0601 33.8969 45.0429 33.8159 45.0094C33.735 44.9758 33.6614 44.9266 33.5995 44.8646L31.1846 42.4497C31.1192 42.3843 31.0415 42.3325 30.956 42.2972C30.8706 42.2618 30.779 42.2437 30.6865 42.2437H21.3242C21.1923 42.2437 21.0633 42.2046 20.9536 42.1313C20.8439 42.058 20.7584 41.9538 20.7079 41.8319C20.6574 41.71 20.6442 41.5759 20.6699 41.4465C20.6957 41.3171 20.7592 41.1982 20.8525 41.1049L22.3345 39.6229C22.3964 39.5608 22.47 39.5117 22.5509 39.4781C22.6319 39.4446 22.7186 39.4274 22.8063 39.4275H28.5039C28.8108 39.4275 29.1092 39.3272 29.3539 39.142C29.5985 38.9568 29.776 38.6967 29.8592 38.4013L31.072 34.0889C31.0978 33.9963 31.1424 33.9099 31.2029 33.8351C31.2635 33.7603 31.3387 33.6987 31.424 33.6542L36.2591 31.1653C36.3679 31.1091 36.4592 31.024 36.5228 30.9194C36.5865 30.8147 36.6201 30.6946 36.62 30.5721V28.372C36.6202 28.2354 36.6619 28.1022 36.7397 27.99L39.3095 24.2901C39.3866 24.179 39.4959 24.0942 39.6228 24.0472L43.2188 22.6972C43.346 22.6495 43.4556 22.5642 43.533 22.4525C43.6104 22.3408 43.6518 22.2082 43.6518 22.0724V20.0658C43.6518 19.9557 43.6246 19.8474 43.5727 19.7504C43.5209 19.6534 43.4458 19.5707 43.3543 19.5096L39.7495 17.1122C39.6505 17.0471 39.536 17.0092 39.4177 17.0024C39.2993 16.9956 39.1812 17.0201 39.0754 17.0735L34.1681 19.5272C34.0558 19.5826 33.9302 19.6052 33.8057 19.5925C33.6811 19.5797 33.5627 19.5321 33.464 19.455L31.1371 17.6156C31.0577 17.5518 30.9939 17.4706 30.9507 17.3784C30.9074 17.2861 30.8858 17.1852 30.8875 17.0833C30.8892 16.9814 30.9142 16.8812 30.9605 16.7905C31.0068 16.6997 31.0732 16.6207 31.1547 16.5595L33.0451 15.1673C33.1307 15.1045 33.2 15.0222 33.2473 14.9271C33.2945 14.8321 33.3184 14.7272 33.3169 14.621C33.3153 14.5149 33.2884 14.4107 33.2384 14.3171C33.1883 14.2235 33.1166 14.1432 33.0293 14.083L30.0845 12.0289C29.9826 11.9571 29.8625 11.9154 29.738 11.9086C29.6136 11.9018 29.4896 11.93 29.3804 11.9902C28.3156 12.5728 25.1913 14.2977 24.0824 15.074C18.9517 18.672 14.8227 23.5182 12.0852 29.1552C11.7648 29.817 11.3688 30.4912 11.33 31.2181C11.2913 31.9451 10.721 33.5679 10.4834 34.2245C10.4514 34.3132 10.4385 34.4078 10.4458 34.5018C10.4531 34.5959 10.4803 34.6874 10.5257 34.7701L16.8077 46.3132C16.8642 46.4181 16.9481 46.5057 17.0506 46.5667L23.6599 50.5341C23.7457 50.5852 23.8188 50.6549 23.874 50.738C23.9291 50.8212 23.9649 50.9157 23.9785 51.0146L25.3022 60.6145C25.3151 60.7065 25.347 60.7948 25.3957 60.8739C25.4445 60.9529 25.5091 61.0211 25.5856 61.0739L30.7428 64.6188C30.8922 64.7215 30.9962 64.8779 31.0332 65.0554L33.7685 78.0453C33.7838 78.1216 33.8131 78.1944 33.8548 78.2601C34.1117 78.6755 35.1362 80.1962 36.3718 80.4215C36.2574 80.4532 36.1553 80.5254 36.0409 80.5588C36.3377 80.611 36.6315 80.6792 36.921 80.763C37.273 80.858 37.625 80.939 37.9771 81.0147C38.528 81.1238 38.5825 81.2083 38.8466 80.719C39.1986 80.0642 39.6017 79.8389 39.9027 79.758C40.0269 79.7293 40.1405 79.6662 40.2305 79.576C40.3205 79.4857 40.3832 79.3718 40.4114 79.2475L42.1838 71.0311C42.2211 70.8589 42.3216 70.7069 42.4655 70.6051L50.3862 64.9902C50.4782 64.9251 50.5533 64.8389 50.605 64.7387C50.6568 64.6385 50.6838 64.5274 50.6836 64.4147V53.8608C50.6847 53.7522 50.6606 53.6449 50.6132 53.5472C50.5659 53.4495 50.4966 53.364 50.4108 53.2975Z" fill="white"/>
<path d="M46.116 8.44873C46.116 8.44873 45.4735 8.48569 45.3433 8.48921C44.3893 8.51738 43.4376 8.58309 42.4883 8.68635C39.0277 9.06177 35.6385 9.9301 32.4238 11.265C32.8515 11.5607 32.1157 11.8318 32.1157 11.8318L33.2669 14.0812H39.4274L43.6518 16.1934L47.3481 14.0812L46.116 8.44873ZM62.3499 21.1324L65.1855 18.6682C65.2743 18.5912 65.3424 18.4931 65.3835 18.383C65.4247 18.273 65.4376 18.1543 65.4212 18.0379C65.4047 17.9216 65.3594 17.8112 65.2893 17.7168C65.2193 17.6224 65.1267 17.5471 65.0201 17.4977L61.7092 15.9611C61.541 15.8826 61.3487 15.8737 61.174 15.9364C60.9993 15.999 60.8564 16.1281 60.7763 16.2955L59.4122 19.1487C59.338 19.3047 59.3237 19.4825 59.372 19.6484C59.4204 19.8142 59.528 19.9565 59.6745 20.0482L61.5156 21.1993C61.6435 21.2789 61.7936 21.3153 61.9438 21.3033C62.094 21.2913 62.2363 21.2314 62.3499 21.1324ZM75.6233 24.7601L74.5971 23.176C74.5813 23.1513 74.5672 23.1267 74.5531 23.1003C74.3683 22.7218 72.8387 19.6328 71.5608 18.4341C70.6015 17.5276 70.3287 17.7881 70.253 17.9888C70.2098 18.0997 70.1374 18.197 70.0436 18.2704L64.9673 22.3733C64.8422 22.4745 64.6863 22.5298 64.5255 22.53H61.8976C61.8051 22.5299 61.7135 22.5481 61.628 22.5834C61.5425 22.6187 61.4649 22.6706 61.3994 22.7359L59.2873 24.8481C59.2218 24.9135 59.1699 24.9911 59.1344 25.0766C59.099 25.1621 59.0808 25.2537 59.0808 25.3462C59.0808 25.4388 59.099 25.5304 59.1344 25.6158C59.1699 25.7013 59.2218 25.779 59.2873 25.8444L61.3994 27.9565C61.4649 28.0219 61.5425 28.0737 61.628 28.1091C61.7135 28.1444 61.8051 28.1626 61.8976 28.1625H75.1287C75.2237 28.1626 75.3178 28.1434 75.4052 28.1062C75.4926 28.0689 75.5716 28.0144 75.6374 27.9458C75.7032 27.8772 75.7544 27.796 75.788 27.7071C75.8215 27.6182 75.8368 27.5234 75.8327 27.4285L75.7359 25.1139C75.7307 24.988 75.6918 24.8658 75.6233 24.7601Z" fill="white"/>
<path d="M45.0598 12.6731C52.5527 12.6724 59.8141 15.2699 65.6065 20.0229C71.399 24.7759 75.3642 31.3903 76.8266 38.7391C78.289 46.088 77.158 53.7165 73.6263 60.3249C70.0947 66.9333 64.3809 72.1127 57.4586 74.9806C50.5362 77.8485 42.8336 78.2275 35.6632 76.0529C28.4928 73.8783 22.2982 69.2847 18.135 63.0549C13.9717 56.825 12.0974 49.3443 12.8314 41.8875C13.5654 34.4306 16.8622 27.4589 22.1602 22.1603C25.1602 19.1432 28.7288 16.7512 32.6596 15.1227C36.5903 13.4942 40.8051 12.6616 45.0598 12.6731ZM45.0598 5.63245C23.2867 5.63245 5.63232 23.2868 5.63232 45.0599C5.63232 66.8331 23.2867 84.4874 45.0598 84.4874C66.833 84.4874 84.4873 66.8331 84.4873 45.0599C84.4873 23.2868 66.833 5.63245 45.0598 5.63245Z" fill="white"/>
</symbol>
<symbol id="icon-arrow-left2" viewBox="0 0 32 32">
<path d="M12.586 27.414l-10-10c-0.781-0.781-0.781-2.047 0-2.828l10-10c0.781-0.781 2.047-0.781 2.828 0s0.781 2.047 0 2.828l-6.586 6.586h19.172c1.105 0 2 0.895 2 2s-0.895 2-2 2h-19.172l6.586 6.586c0.39 0.39 0.586 0.902 0.586 1.414s-0.195 1.024-0.586 1.414c-0.781 0.781-2.047 0.781-2.828 0z"></path>
</symbol>
<symbol id="icon-arrow-right2" viewBox="0 0 32 32">
<path d="M19.414 27.414l10-10c0.781-0.781 0.781-2.047 0-2.828l-10-10c-0.781-0.781-2.047-0.781-2.828 0s-0.781 2.047 0 2.828l6.586 6.586h-19.172c-1.105 0-2 0.895-2 2s0.895 2 2 2h19.172l-6.586 6.586c-0.39 0.39-0.586 0.902-0.586 1.414s0.195 1.024 0.586 1.414c0.781 0.781 2.047 0.781 2.828 0z"></path>
</symbol>
<symbol id="icon-x" viewBox="0 0 32 32">
<path d="M24.325 3h4.411l-9.636 11.013 11.336 14.987h-8.876l-6.952-9.089-7.955 9.089h-4.413l10.307-11.78-10.875-14.22h9.101l6.284 8.308zM22.777 26.36h2.444l-15.776-20.859h-2.623z"></path>
</symbol>
<symbol id="icon-tiktok" viewBox="0 0 32 32">
<path d="M16.707 0.027c1.747-0.027 3.48-0.013 5.213-0.027 0.107 2.040 0.84 4.12 2.333 5.56 1.493 1.48 3.6 2.16 5.653 2.387v5.373c-1.92-0.067-3.853-0.467-5.6-1.293-0.76-0.347-1.467-0.787-2.16-1.24-0.013 3.893 0.013 7.787-0.027 11.667-0.107 1.867-0.72 3.72-1.8 5.253-1.747 2.56-4.773 4.227-7.88 4.28-1.907 0.107-3.813-0.413-5.44-1.373-2.693-1.587-4.587-4.493-4.867-7.613-0.027-0.667-0.040-1.333-0.013-1.987 0.24-2.533 1.493-4.96 3.44-6.613 2.213-1.92 5.307-2.84 8.2-2.293 0.027 1.973-0.053 3.947-0.053 5.92-1.32-0.427-2.867-0.307-4.027 0.493-0.84 0.547-1.48 1.387-1.813 2.333-0.28 0.68-0.2 1.427-0.187 2.147 0.32 2.187 2.427 4.027 4.667 3.827 1.493-0.013 2.92-0.88 3.693-2.147 0.253-0.44 0.533-0.893 0.547-1.413 0.133-2.387 0.080-4.76 0.093-7.147 0.013-5.373-0.013-10.733 0.027-16.093z"></path>
</symbol>
<symbol id="icon-instagram" viewBox="0 0 32 32">
<path d="M16 2.881c4.275 0 4.781 0.019 6.462 0.094 1.563 0.069 2.406 0.331 2.969 0.55 0.744 0.288 1.281 0.638 1.837 1.194 0.563 0.563 0.906 1.094 1.2 1.838 0.219 0.563 0.481 1.412 0.55 2.969 0.075 1.688 0.094 2.194 0.094 6.463s-0.019 4.781-0.094 6.463c-0.069 1.563-0.331 2.406-0.55 2.969-0.288 0.744-0.637 1.281-1.194 1.837-0.563 0.563-1.094 0.906-1.837 1.2-0.563 0.219-1.413 0.481-2.969 0.55-1.688 0.075-2.194 0.094-6.463 0.094s-4.781-0.019-6.463-0.094c-1.563-0.069-2.406-0.331-2.969-0.55-0.744-0.288-1.281-0.637-1.838-1.194-0.563-0.563-0.906-1.094-1.2-1.837-0.219-0.563-0.481-1.413-0.55-2.969-0.075-1.688-0.094-2.194-0.094-6.463s0.019-4.781 0.094-6.463c0.069-1.563 0.331-2.406 0.55-2.969 0.288-0.744 0.638-1.281 1.194-1.838 0.563-0.563 1.094-0.906 1.838-1.2 0.563-0.219 1.412-0.481 2.969-0.55 1.681-0.075 2.188-0.094 6.463-0.094zM16 0c-4.344 0-4.887 0.019-6.594 0.094-1.7 0.075-2.869 0.35-3.881 0.744-1.056 0.412-1.95 0.956-2.837 1.85-0.894 0.888-1.438 1.781-1.85 2.831-0.394 1.019-0.669 2.181-0.744 3.881-0.075 1.713-0.094 2.256-0.094 6.6s0.019 4.887 0.094 6.594c0.075 1.7 0.35 2.869 0.744 3.881 0.413 1.056 0.956 1.95 1.85 2.837 0.887 0.887 1.781 1.438 2.831 1.844 1.019 0.394 2.181 0.669 3.881 0.744 1.706 0.075 2.25 0.094 6.594 0.094s4.888-0.019 6.594-0.094c1.7-0.075 2.869-0.35 3.881-0.744 1.050-0.406 1.944-0.956 2.831-1.844s1.438-1.781 1.844-2.831c0.394-1.019 0.669-2.181 0.744-3.881 0.075-1.706 0.094-2.25 0.094-6.594s-0.019-4.887-0.094-6.594c-0.075-1.7-0.35-2.869-0.744-3.881-0.394-1.063-0.938-1.956-1.831-2.844-0.887-0.887-1.781-1.438-2.831-1.844-1.019-0.394-2.181-0.669-3.881-0.744-1.712-0.081-2.256-0.1-6.6-0.1v0z"></path>
<path d="M16 7.781c-4.537 0-8.219 3.681-8.219 8.219s3.681 8.219 8.219 8.219 8.219-3.681 8.219-8.219c0-4.537-3.681-8.219-8.219-8.219zM16 21.331c-2.944 0-5.331-2.387-5.331-5.331s2.387-5.331 5.331-5.331c2.944 0 5.331 2.387 5.331 5.331s-2.387 5.331-5.331 5.331z"></path>
<path d="M26.462 7.456c0 1.060-0.859 1.919-1.919 1.919s-1.919-0.859-1.919-1.919c0-1.060 0.859-1.919 1.919-1.919s1.919 0.859 1.919 1.919z"></path>
</symbol>
<symbol id="icon-whatsapp" viewBox="0 0 32 32">
<path d="M27.281 4.65c-2.994-3-6.975-4.65-11.219-4.65-8.738 0-15.85 7.112-15.85 15.856 0 2.794 0.731 5.525 2.119 7.925l-2.25 8.219 8.406-2.206c2.319 1.262 4.925 1.931 7.575 1.931h0.006c0 0 0 0 0 0 8.738 0 15.856-7.113 15.856-15.856 0-4.238-1.65-8.219-4.644-11.219zM16.069 29.050v0c-2.369 0-4.688-0.637-6.713-1.837l-0.481-0.288-4.987 1.306 1.331-4.863-0.313-0.5c-1.325-2.094-2.019-4.519-2.019-7.012 0-7.269 5.912-13.181 13.188-13.181 3.519 0 6.831 1.375 9.319 3.862 2.488 2.494 3.856 5.8 3.856 9.325-0.006 7.275-5.919 13.188-13.181 13.188zM23.294 19.175c-0.394-0.2-2.344-1.156-2.706-1.288s-0.625-0.2-0.894 0.2c-0.262 0.394-1.025 1.288-1.256 1.556-0.231 0.262-0.462 0.3-0.856 0.1s-1.675-0.619-3.188-1.969c-1.175-1.050-1.975-2.35-2.206-2.744s-0.025-0.613 0.175-0.806c0.181-0.175 0.394-0.463 0.594-0.694s0.262-0.394 0.394-0.662c0.131-0.262 0.069-0.494-0.031-0.694s-0.894-2.15-1.219-2.944c-0.319-0.775-0.65-0.669-0.894-0.681-0.231-0.012-0.494-0.012-0.756-0.012s-0.694 0.1-1.056 0.494c-0.363 0.394-1.387 1.356-1.387 3.306s1.419 3.831 1.619 4.1c0.2 0.262 2.794 4.269 6.769 5.981 0.944 0.406 1.681 0.65 2.256 0.837 0.95 0.3 1.813 0.256 2.494 0.156 0.762-0.113 2.344-0.956 2.675-1.881s0.331-1.719 0.231-1.881c-0.094-0.175-0.356-0.275-0.756-0.475z"></path>
</symbol>
<symbol id="icon-telegram" viewBox="0 0 32 32">
<path d="M16 0c-8.838 0-16 7.162-16 16s7.162 16 16 16 16-7.163 16-16-7.163-16-16-16zM23.863 10.969l-2.625 12.369c-0.181 0.881-0.712 1.087-1.45 0.681l-4-2.956-1.919 1.869c-0.225 0.219-0.4 0.4-0.8 0.4-0.519 0-0.431-0.194-0.606-0.688l-1.363-4.475-3.956-1.231c-0.856-0.262-0.862-0.85 0.194-1.269l15.412-5.95c0.7-0.319 1.381 0.169 1.113 1.25z"></path>
</symbol>
<symbol id="icon-youtube" viewBox="0 0 32 32">
<path d="M31.681 9.6c0 0-0.313-2.206-1.275-3.175-1.219-1.275-2.581-1.281-3.206-1.356-4.475-0.325-11.194-0.325-11.194-0.325h-0.012c0 0-6.719 0-11.194 0.325-0.625 0.075-1.987 0.081-3.206 1.356-0.963 0.969-1.269 3.175-1.269 3.175s-0.319 2.588-0.319 5.181v2.425c0 2.587 0.319 5.181 0.319 5.181s0.313 2.206 1.269 3.175c1.219 1.275 2.819 1.231 3.531 1.369 2.563 0.244 10.881 0.319 10.881 0.319s6.725-0.012 11.2-0.331c0.625-0.075 1.988-0.081 3.206-1.356 0.962-0.969 1.275-3.175 1.275-3.175s0.319-2.587 0.319-5.181v-2.425c-0.006-2.588-0.325-5.181-0.325-5.181zM12.694 20.15v-8.994l8.644 4.513-8.644 4.481z"></path>
</symbol>
</defs>
</svg>
