<svg width="92" height="134" viewBox="0 0 92 134" fill="none" xmlns="http://www.w3.org/2000/svg">
<g id="three stars">
<g id="&#240;&#159;&#166;&#134; icon &#34;star full&#34;">
<path id="Vector" d="M92 50.0643L68.1605 46.6013L57.5 25L46.8395 46.6013L23 50.0643L40.25 66.8787L36.179 90.619L57.5 79.4108L78.821 90.619L74.75 66.8787L92 50.0643Z" fill="#78509C"/>
</g>
<g id="&#240;&#159;&#166;&#134; icon &#34;star full&#34;_2">
<path id="Vector_2" d="M45 16.3463L29.4525 14.0878L22.5 0L15.5475 14.0878L0 16.3463L11.25 27.3122L8.595 42.795L22.5 35.4853L36.405 42.795L33.75 27.3122L45 16.3463Z" fill="#78509C"/>
</g>
<g id="&#240;&#159;&#166;&#134; icon &#34;star full&#34;_3">
<path id="Vector_3" d="M80 107.346L64.4525 105.088L57.5 91L50.5475 105.088L35 107.346L46.25 118.312L43.595 133.795L57.5 126.485L71.405 133.795L68.75 118.312L80 107.346Z" fill="#78509C"/>
</g>
</g>
</svg>
