<svg width="635" height="724" viewBox="0 0 635 724" fill="none" xmlns="http://www.w3.org/2000/svg">
<g id="yosor-store">
<g id="undraw_server_cluster_jwwq">
<path id="Vector" d="M315.936 604.807C255.768 604.807 197.463 583.945 150.953 545.775C104.443 507.605 72.6074 454.49 60.8695 395.479C49.1317 336.468 58.2182 275.212 86.5808 222.15C114.943 169.087 160.827 127.501 216.415 104.476C272.002 81.4508 333.853 78.4123 391.429 95.8779C449.005 113.344 498.744 150.233 532.171 200.26C565.598 250.287 580.645 310.357 574.748 370.234C568.85 430.111 542.374 486.092 499.829 528.636C475.736 552.861 447.077 572.067 415.512 585.141C383.947 598.216 350.102 604.9 315.936 604.807ZM315.936 86.6781C173.639 86.6781 57.8711 202.446 57.8711 344.743C57.8711 487.04 173.639 602.807 315.936 602.807C458.232 602.807 574 487.04 574 344.743C574 202.446 458.232 86.6781 315.936 86.6781Z" fill="#CCCCCC"/>
<g id="dashicons:store">
<path id="Vector_2" d="M225 624C229.1 626.9 234.6 628.3 240 628.3C245.5 628.3 250.9 626.9 255 624C261.2 619.4 265 612.3 265 604C265 612.3 268.7 619.4 275 624C279.1 626.9 284.6 628.3 290 628.3C295.5 628.3 300.9 626.9 305 624C311.2 619.4 315 612.3 315 604C315 612.3 318.7 619.4 325 624C329.1 626.9 334.6 628.3 340.1 628.3C345.5 628.3 350.9 626.9 355 624C361.2 619.4 365 612.3 365 604C365 612.3 368.7 619.4 375 624C379.1 626.9 384.6 628.3 390 628.3C395.5 628.3 400.9 626.9 405 624C411.3 619.4 415 612.3 415 604V594L385 524H255L215 594V604C215 612.3 218.7 619.4 225 624ZM245 713.9H295V663.9H335V713.9H385V643.9C381.3 643.4 377.8 641.7 375 639.6C368.7 635.1 365 632.3 365 624C365 632.3 361.2 635.1 355 639.6C350.9 642.6 345.5 643.9 340.1 644C334.6 644 329.1 642.6 325 639.6C318.7 635.1 315 632.3 315 624C315 632.3 311.2 635.1 305 639.6C300.9 642.6 295.5 643.9 290 644C284.6 644 279.1 642.6 275 639.6C268.7 635.1 265 632.3 265 623.9C265 632.3 261.2 635.1 255 639.6C252.1 641.7 248.7 643.4 245 644V713.9Z" fill="#78509C"/>
</g>
<g id="bag">
<circle id="Ellipse 517" cx="131" cy="521" r="55" fill="#03A7D3"/>
<g id="game-icons:beach-bag" clip-path="url(#clip0_32_280)">
<path id="Vector_3" d="M118.413 491.737C114.017 493.628 111.374 497.414 109.964 501.781C108.554 506.15 108.281 511.156 108.51 515.91C108.7 519.846 109.237 523.619 109.798 526.697L101.058 530.456C102.27 532.078 106.59 537.84 111.946 544.302C115.023 548.009 118.226 551.662 120.866 554.247C122.181 555.527 123.371 556.548 124.255 557.15C124.709 557.446 125.09 557.639 125.313 557.707C125.421 557.75 125.464 557.746 125.482 557.753L161.477 542.271C161.484 542.253 161.516 542.224 161.559 542.116C161.663 541.908 161.784 541.498 161.882 540.965C162.053 539.909 162.125 538.345 162.108 536.507C162.039 532.816 161.594 527.977 161.024 523.192C160.015 514.86 158.806 507.759 158.456 505.767L149.714 509.527C147.869 507.002 145.499 504.018 142.772 501.173C139.479 497.737 135.657 494.492 131.516 492.511C127.375 490.531 122.809 489.846 118.413 491.737ZM119.385 493.997C123.027 492.431 126.721 492.956 130.448 494.735C134.172 496.507 137.829 499.578 141.008 502.884C143.487 505.464 145.664 508.174 147.403 510.521L112.112 525.701C111.603 522.824 111.134 519.38 110.966 515.806C110.752 511.225 111.038 506.458 112.313 502.536C113.584 498.606 115.743 495.564 119.385 493.997ZM151.588 512.189C152.345 511.998 153.145 512.083 153.844 512.428C154.544 512.774 155.098 513.357 155.406 514.074C155.75 514.874 155.762 515.777 155.44 516.585C155.118 517.394 154.487 518.041 153.688 518.385C152.889 518.729 151.985 518.741 151.177 518.419C150.368 518.097 149.721 517.467 149.377 516.667C149.168 516.181 149.08 515.651 149.12 515.124C149.16 514.596 149.327 514.086 149.607 513.637C150.984 515.663 151.765 516.994 151.765 516.994L153.882 515.756C153.882 515.756 153.051 514.343 151.588 512.189ZM110.439 529.889C110.997 532.432 111.453 534.007 111.453 534.007L113.811 533.32C113.811 533.32 113.382 531.838 112.858 529.443C113.377 529.549 113.862 529.779 114.272 530.113C114.683 530.447 115.007 530.875 115.216 531.361C115.56 532.161 115.572 533.064 115.25 533.872C114.928 534.681 114.298 535.328 113.498 535.672C112.699 536.016 111.796 536.028 110.987 535.706C110.179 535.384 109.531 534.754 109.187 533.954C108.879 533.238 108.836 532.436 109.065 531.691C109.295 530.946 109.782 530.307 110.439 529.889Z" fill="white"/>
</g>
</g>
<g id="shoe">
<circle id="Ellipse 519" cx="507" cy="524" r="55" fill="#03A7D3"/>
<path id="Vector_4" fill-rule="evenodd" clip-rule="evenodd" d="M528.261 490.908C527.707 489.888 526.628 489 525.651 489C523.902 489 521.653 490.861 520.293 491.99C518.255 493.676 515.879 495.278 513.327 495.836C511.439 496.243 509.186 495.937 507.196 495.382C506.868 495.293 504.046 494.242 504.046 494.242C500.139 492.323 498.403 497.779 496.861 500.466C495.804 502.3 494.474 504.487 492.961 506.693C492.357 506.634 491.749 506.736 491.191 506.99C490.633 507.244 490.144 507.642 489.767 508.148C489.391 508.654 489.139 509.252 489.035 509.887C488.93 510.523 488.977 511.176 489.17 511.788C488.047 513.25 486.983 514.65 485.973 515.999C485.274 515.789 484.531 515.806 483.841 516.049C483.151 516.291 482.545 516.747 482.1 517.358C481.655 517.97 481.392 518.709 481.345 519.48C481.298 520.251 481.469 521.02 481.836 521.688C477.928 527.244 475.238 531.761 473.685 535.782C472.373 539.195 471.811 542.386 472.056 545.639C472.3 548.846 473.302 551.835 474.706 554.852C476.609 558.943 481.274 560.063 484.69 557.966L538.355 525.007C540.029 523.978 541.251 522.285 541.752 520.298C542.252 518.311 541.99 516.195 541.023 514.413L528.261 490.908ZM529.238 508.217L524.066 498.69C521.281 500.807 518.171 502.695 514.789 503.432C511.311 504.188 507.793 503.564 505.358 502.889C503.86 502.474 503.886 503.11 503.08 504.51C502.162 506.112 501.024 507.996 499.727 509.962L500.131 510.175C500.563 510.399 500.95 510.711 501.268 511.094C501.586 511.477 501.83 511.924 501.986 512.407C502.141 512.891 502.205 513.403 502.174 513.913C502.143 514.423 502.018 514.922 501.805 515.38C501.592 515.838 501.296 516.247 500.934 516.583C500.572 516.92 500.151 517.176 499.695 517.339C499.239 517.501 498.758 517.566 498.278 517.53C497.799 517.494 497.331 517.357 496.902 517.128L495.177 516.22C494.31 517.353 493.486 518.43 492.699 519.477C493.501 519.99 494.087 520.812 494.335 521.772C494.584 522.733 494.475 523.758 494.032 524.635C493.589 525.513 492.846 526.175 491.957 526.485C491.067 526.796 490.099 526.73 489.254 526.302L488.117 525.705C484.158 531.277 481.73 535.348 480.425 538.725C479.459 541.234 479.186 543.2 479.321 545.019C479.456 546.826 480.021 548.757 481.136 551.192L534.706 518.291L532.884 514.933L517.1 524.627C516.263 525.133 515.272 525.266 514.343 524.998C513.414 524.73 512.623 524.081 512.141 523.195C511.66 522.308 511.528 521.255 511.774 520.265C512.02 519.275 512.624 518.429 513.454 517.911L529.238 508.217Z" fill="white"/>
</g>
<g id="clothes">
<circle id="Ellipse 518" cx="147" cy="156" r="55" fill="#03A7D3"/>
<g id="game-icons:clothes">
<path id="Vector_5" d="M122.581 122.661L114.217 126.054L109.688 142.75L115.391 145.462L118.468 136.303L121.246 136.685L122.223 160.385L145.365 157.081L144.851 143.193L144.812 141.912L145.516 141.812L143.468 133.511L146.035 132.366L151.544 140.3L156.262 136.1L147.239 121.338L138.262 120.422C137.487 121.147 136.49 121.661 135.387 122.095C133.965 122.649 132.329 123.047 130.67 123.283C129.011 123.52 127.329 123.597 125.809 123.463C124.628 123.355 123.528 123.142 122.581 122.661ZM147.747 144.352L147.823 146.565L175.805 142.569L175.259 140.423L147.747 144.352ZM147.926 149.409L149.393 189.543L159.206 188.141L161.662 153.34L164.416 152.947L176.514 185.67L186.327 184.269L176.503 145.328L147.926 149.409Z" fill="white"/>
</g>
</g>
<g id="headphone">
<circle id="Ellipse 520" cx="512" cy="172" r="55" fill="#03A7D3"/>
<g id="ri:headphone-fill" clip-path="url(#clip1_32_280)">
<path id="Vector_6" d="M490.864 164.62L499.165 167.388C500.633 167.877 501.846 168.929 502.538 170.313C503.23 171.697 503.343 173.299 502.854 174.766L498.242 188.601C497.752 190.069 496.7 191.282 495.316 191.974C493.932 192.666 492.331 192.779 490.863 192.29L482.562 189.523C481.094 189.033 479.881 187.981 479.189 186.597C478.498 185.213 478.384 183.611 478.873 182.144L485.331 162.775C490.425 147.493 506.943 139.236 522.225 144.331C537.507 149.425 545.764 165.943 540.669 181.225L534.212 200.593C533.723 202.061 532.67 203.274 531.287 203.966C529.903 204.658 528.301 204.772 526.833 204.282L518.532 201.515C517.065 201.026 515.851 199.973 515.16 198.589C514.468 197.206 514.354 195.604 514.843 194.136L519.456 180.301C519.945 178.834 520.997 177.62 522.381 176.929C523.765 176.237 525.367 176.123 526.835 176.612L535.135 179.38C537.093 173.509 536.638 167.101 533.87 161.566C531.103 156.031 526.251 151.822 520.38 149.864C514.509 147.907 508.101 148.362 502.566 151.129C497.031 153.897 492.822 158.749 490.864 164.62Z" fill="white"/>
</g>
</g>
<g id="tv">
<circle id="Ellipse 521" cx="570" cy="348" r="55" fill="#03A7D3"/>
<g id="fluent-mdl2:devices-3" clip-path="url(#clip2_32_280)">
<path id="Vector_7" d="M533.57 328.347L601.265 314.674L609.68 356.332L578.436 362.643L579.488 367.851L589.902 365.747L590.954 370.954L564.918 376.213L563.866 371.006L574.28 368.903L573.229 363.695L557.607 366.851L559.71 377.265L538.881 381.473L532.57 350.229L537.777 349.177L533.57 328.347ZM553.451 373.11L549.244 352.28L538.829 354.384L543.036 375.213L553.451 373.11ZM556.555 361.643L603.421 352.177L597.11 320.933L539.829 332.503L542.985 348.125L553.399 346.021L556.555 361.643Z" fill="white"/>
</g>
</g>
<g id="mouse">
<circle id="Ellipse 522" cx="330" cy="92" r="55" fill="#03A7D3"/>
<g id="wpf:mouse">
<path id="Vector_8" d="M350.529 66.75C348.913 66.8389 347.32 67.2508 345.901 67.9292C342.118 69.7331 338.965 72.9289 336.564 75.3331C336.327 75.5223 336.133 75.7592 335.995 76.0284C335.856 76.2976 335.776 76.593 335.759 76.8954C335.742 77.1978 335.789 77.5003 335.897 77.7832C336.005 78.0661 336.172 78.3231 336.386 78.5373C336.6 78.7516 336.856 78.9183 337.139 79.0265C337.422 79.1348 337.725 79.1822 338.027 79.1656C338.329 79.1491 338.625 79.069 338.894 78.9305C339.164 78.792 339.401 78.5983 339.59 78.3619C341.959 75.9927 344.948 73.2196 347.753 71.8815C349.156 71.2139 350.424 70.9177 351.622 71.0415C352.82 71.1654 354.053 71.6204 355.41 72.9746C357.696 75.2631 357.825 77.1908 356.837 79.875C355.854 82.5592 353.399 85.7577 350.445 88.7085C347.618 91.5354 345.508 94.1685 344.555 96.955C344.069 98.3388 343.985 99.8318 344.313 101.261C344.641 102.691 345.367 103.998 346.407 105.032C348.62 107.245 351.821 107.751 354.734 106.628C357.65 105.508 360.558 103.163 363.821 99.8977C364.057 99.7083 364.251 99.4712 364.389 99.2019C364.528 98.9326 364.608 98.6371 364.624 98.3347C364.641 98.0323 364.594 97.7298 364.485 97.447C364.377 97.1641 364.21 96.9073 363.996 96.6933C363.782 96.4792 363.525 96.3128 363.242 96.2048C362.959 96.0967 362.657 96.0496 362.354 96.0664C362.052 96.0833 361.756 96.1637 361.487 96.3024C361.218 96.4411 360.981 96.635 360.792 96.8715C357.725 99.9381 355.084 101.874 353.221 102.59C351.358 103.309 350.618 103.185 349.436 102.003C348.224 100.792 348.106 99.9785 348.677 98.3012C349.25 96.6238 350.879 94.3327 353.474 91.7373C356.638 88.5765 359.502 85.1412 360.878 81.3881C362.251 77.6404 361.761 73.2708 358.436 69.9458C356.514 68.0208 354.333 66.9762 352.128 66.75C351.596 66.7069 351.061 66.7069 350.529 66.75ZM321.753 74.8269C317.466 75.0797 313.423 76.9071 310.4 79.9585L307.535 82.8231L318.391 93.6758L321.333 90.7304C320.904 89.8692 320.754 88.8952 320.905 87.9447C321.056 86.9941 321.5 86.1146 322.176 85.4292L325.122 82.4865C325.806 81.811 326.686 81.3666 327.636 81.2155C328.586 81.0644 329.559 81.2141 330.42 81.6438L333.532 78.5315C330.181 75.9209 326.001 74.6057 321.759 74.8269H321.753ZM336.731 81.6412L333.449 84.9231C333.772 85.747 333.848 86.647 333.669 87.5136C333.49 88.3801 333.062 89.176 332.439 89.8042L329.494 92.7469C328.866 93.3696 328.07 93.7964 327.204 93.9757C326.338 94.1549 325.439 94.0788 324.615 93.7565L321.503 96.8689L332.439 107.724L335.301 104.862C341.644 98.5192 342.091 88.5496 336.731 81.6412ZM328.401 83.83C327.892 83.8437 327.409 84.0552 327.055 84.4196L324.109 87.3623C323.757 87.722 323.56 88.2052 323.56 88.7085C323.56 89.2117 323.757 89.6949 324.109 90.0546L324.868 90.8112C325.222 91.178 325.705 91.3908 326.215 91.4035C326.724 91.3897 327.207 91.177 327.561 90.8112L330.506 87.8685C330.871 87.5141 331.082 87.0306 331.093 86.5223C331.08 86.0138 330.868 85.5306 330.503 85.1762L329.75 84.4196C329.575 84.2373 329.367 84.0911 329.136 83.9894C328.905 83.8878 328.656 83.8327 328.403 83.8273L328.401 83.83ZM304.927 85.4292L300.888 89.3815C294.009 96.2631 294.009 107.487 300.888 114.369C302.523 116.004 304.464 117.302 306.601 118.187C308.737 119.072 311.027 119.527 313.34 119.527C315.653 119.527 317.943 119.072 320.079 118.187C322.216 117.302 324.157 116.004 325.792 114.369L329.83 110.33L304.927 85.4292Z" fill="white"/>
</g>
</g>
<g id="toy">
<circle id="Ellipse 523" cx="61" cy="334" r="55" fill="#03A7D3"/>
<g id="mdi:child-toy">
<g id="fluent-emoji-high-contrast:teddy-bear">
<g id="Group">
<path id="Vector_9" d="M60.9062 322.875C60.6938 322.875 60.4859 322.937 60.3079 323.053C60.13 323.169 59.9898 323.335 59.9044 323.529C59.7884 323.794 59.9262 324.085 60.1319 324.288L61.2256 325.382C61.3272 325.484 61.4479 325.565 61.5808 325.62C61.7137 325.675 61.8561 325.703 62 325.703C62.1439 325.703 62.2863 325.675 62.4192 325.62C62.5521 325.565 62.6728 325.484 62.7744 325.382L63.8681 324.288C64.0716 324.085 64.2116 323.794 64.0956 323.529C64.0102 323.335 63.87 323.169 63.6921 323.053C63.5141 322.937 63.3062 322.875 63.0937 322.875H60.9062Z" fill="white"/>
<path id="Vector_10" d="M46.6875 310.997C46.6875 312.167 47.055 313.252 47.6806 314.143C45.7403 316.693 44.5 319.778 44.5 323.208C44.5 328.055 46.4709 331.297 49.6559 333.325L34.8706 341.86C33.3987 342.709 32.3131 344.095 31.8422 345.727C31.3713 347.359 31.5518 349.111 32.3457 350.613C33.1397 352.115 34.4851 353.25 36.0992 353.781C37.7132 354.311 39.47 354.195 41 353.456C40.488 354.682 40.3041 356.02 40.4664 357.339C40.6286 358.658 41.1314 359.912 41.9253 360.977L43.8831 363.608C44.5961 364.567 45.5235 365.346 46.5913 365.882C47.659 366.418 48.8374 366.697 50.0322 366.696C51.227 366.695 52.405 366.415 53.4719 365.877C54.5389 365.339 55.4653 364.559 56.1769 363.6C58.0476 364.258 60.0168 364.593 62 364.591C64.0497 364.591 66.0162 364.241 67.8428 363.591C68.5536 364.552 69.4796 365.333 70.5467 365.872C71.6137 366.411 72.7921 366.693 73.9875 366.694C75.1829 366.696 76.362 366.418 77.4306 365.882C78.4991 365.346 79.4274 364.568 80.1409 363.608L82.1009 360.977C82.8965 359.909 83.3997 358.653 83.5608 357.331C83.7219 356.009 83.5354 354.668 83.0197 353.441C84.5341 354.204 86.2852 354.351 87.9057 353.852C89.5263 353.352 90.8906 352.244 91.7125 350.761C92.5345 349.278 92.7504 347.534 92.3149 345.895C91.8794 344.256 90.8264 342.849 89.3766 341.97L74.7575 333.049C77.6975 331.013 79.5 327.843 79.5 323.208C79.5 319.778 78.2597 316.693 76.3194 314.143C77.1524 312.972 77.4912 311.52 77.2625 310.101C77.0337 308.683 76.2558 307.411 75.0969 306.562C73.938 305.712 72.4913 305.353 71.0696 305.561C69.6479 305.77 68.3654 306.53 67.4994 307.676C65.6487 306.992 63.7653 306.622 62 306.622C60.2347 306.622 58.3512 306.992 56.5006 307.676C55.8061 306.768 54.8444 306.1 53.7507 305.767C52.6571 305.433 51.4864 305.451 50.4033 305.818C49.3203 306.184 48.3794 306.881 47.7128 307.81C47.0463 308.739 46.6877 309.854 46.6875 310.997ZM52.1562 307.716C53.0225 307.716 53.81 308.053 54.3962 308.599C52.4685 309.58 50.7107 310.863 49.19 312.401C48.9531 311.901 48.8466 311.349 48.8804 310.797C48.9141 310.244 49.0871 309.709 49.3831 309.242C49.6791 308.774 50.0886 308.389 50.5735 308.122C51.0583 307.855 51.6028 307.716 52.1562 307.716ZM72.9375 349.37C71.6981 349.901 70.6217 350.751 69.8181 351.833L67.8581 354.465C66.8145 355.862 66.2817 357.576 66.3487 359.319C65.0144 359.896 63.5444 360.216 62 360.216C60.4644 360.216 59.0031 359.901 57.6775 359.33C57.7469 357.583 57.214 355.865 56.1681 354.465L54.2081 351.833C53.3988 350.743 52.3128 349.889 51.0625 349.359V349.278C51.0625 346.377 52.2148 343.595 54.266 341.544C56.3172 339.493 59.0992 338.341 62 338.341C64.9008 338.341 67.6828 339.493 69.734 341.544C71.7852 343.595 72.9375 346.377 72.9375 349.278V349.37ZM75.125 310.997C75.125 311.5 75.0112 311.977 74.81 312.401C73.2893 310.863 71.5315 309.58 69.6037 308.599C70.071 308.163 70.6557 307.872 71.2858 307.764C71.9159 307.655 72.5641 307.733 73.1507 307.987C73.7372 308.242 74.2366 308.663 74.5873 309.197C74.9381 309.732 75.125 310.357 75.125 310.997ZM56.5312 320.688C56.2412 320.688 55.963 320.572 55.7578 320.367C55.5527 320.162 55.4375 319.884 55.4375 319.594C55.4375 319.304 55.5527 319.025 55.7578 318.82C55.963 318.615 56.2412 318.5 56.5312 318.5C56.8213 318.5 57.0995 318.615 57.3046 318.82C57.5098 319.025 57.625 319.304 57.625 319.594C57.625 319.884 57.5098 320.162 57.3046 320.367C57.0995 320.572 56.8213 320.688 56.5312 320.688ZM62 332.719C57.7716 332.719 54.3437 329.175 54.3437 326.156C54.3437 323.138 57.7716 320.688 62 320.688C66.2284 320.688 69.6562 323.138 69.6562 326.156C69.6562 329.175 66.2284 332.719 62 332.719ZM68.5625 319.594C68.5625 319.884 68.4473 320.162 68.2421 320.367C68.037 320.572 67.7588 320.688 67.4688 320.688C67.1787 320.688 66.9005 320.572 66.6954 320.367C66.4902 320.162 66.375 319.884 66.375 319.594C66.375 319.304 66.4902 319.025 66.6954 318.82C66.9005 318.615 67.1787 318.5 67.4688 318.5C67.7588 318.5 68.037 318.615 68.2421 318.82C68.4473 319.025 68.5625 319.304 68.5625 319.594ZM51.64 353.828L53.6 356.462C53.9431 356.923 54.1921 357.447 54.3328 358.004C54.4734 358.561 54.5029 359.14 54.4196 359.709C54.3364 360.278 54.1419 360.824 53.8474 361.318C53.5529 361.811 53.164 362.242 52.7031 362.585C52.2422 362.928 51.7182 363.177 51.1611 363.317C50.6039 363.458 50.0245 363.488 49.456 363.404C48.8874 363.321 48.3408 363.127 47.8474 362.832C47.354 362.538 46.9234 362.149 46.5803 361.688L44.6203 359.054C43.9276 358.123 43.633 356.955 43.8014 355.807C43.9698 354.659 44.5874 353.625 45.5183 352.932C46.4491 352.24 47.6171 351.945 48.7651 352.113C49.9132 352.282 50.9473 352.897 51.64 353.828ZM72.3862 353.83C72.7295 353.37 73.1602 352.981 73.6537 352.687C74.1472 352.392 74.6938 352.198 75.2624 352.115C75.8309 352.032 76.4103 352.062 76.9673 352.202C77.5244 352.343 78.0483 352.592 78.5091 352.936C78.9698 353.279 79.3585 353.71 79.6528 354.203C79.9472 354.697 80.1414 355.243 80.2245 355.812C80.3076 356.38 80.2778 356.96 80.137 357.517C79.9962 358.074 79.747 358.598 79.4037 359.058L77.4459 361.69C77.1028 362.151 76.6722 362.54 76.1788 362.834C75.6854 363.129 75.1388 363.323 74.5703 363.407C74.0017 363.49 73.4223 363.46 72.8652 363.32C72.308 363.179 71.784 362.93 71.3231 362.587C70.8622 362.244 70.4734 361.813 70.1789 361.32C69.8843 360.826 69.6899 360.28 69.6066 359.711C69.5233 359.143 69.5528 358.563 69.6935 358.006C69.8341 357.449 70.0831 356.925 70.4262 356.464L72.3862 353.83Z" fill="white"/>
</g>
</g>
</g>
</g>
</g>
</g>
<defs>
<clipPath id="clip0_32_280">
<rect width="70" height="70" fill="white" transform="translate(85.0186 502.678) rotate(-23.2743)"/>
</clipPath>
<clipPath id="clip1_32_280">
<rect width="70" height="70" fill="white" transform="translate(490.866 127.727) rotate(18.4381)"/>
</clipPath>
<clipPath id="clip2_32_280">
<rect width="85" height="85" fill="white" transform="translate(520 314.829) rotate(-11.4193)"/>
</clipPath>
</defs>
</svg>
